<svg xmlns="http://www.w3.org/2000/svg" xmlns:xlink="http://www.w3.org/1999/xlink" width="125" height="181" viewBox="0 0 125 181"><defs><path id="riwvb" d="M469 83v3"/><path id="riwvc" d="M469 92v72"/><path id="riwvd" d="M469 167v3.37l-3 1.63"/><path id="riwve" d="M460 175l-57 31"/><path id="riwvf" d="M400 208l-3 2"/><path id="riwvg" d="M447 107.51V155l39-22.51V85z"/><path id="riwvh" d="M450 109.18L482 91v38.82L450 148z"/><path id="riwvi" d="M447 155l-22-12.79V95l22 12.79z"/><path id="riwvj" d="M463.82 73L425 95.27 447.18 108 486 85.73z"/><path id="riwvk" d="M444.6 117.52c0-.53-.33-1.14-.72-1.37-.4-.23-.72.01-.72.54v28.85c0 .53.32 1.15.72 1.38.4.23.71-.02.71-.55z"/><path id="riwvl" d="M440.66 115.25c0-.53-.32-1.14-.71-1.37-.4-.23-.72.01-.72.54v28.85c0 .53.32 1.15.72 1.38.4.23.71-.02.71-.55z"/><path id="riwvm" d="M436.74 112.98c0-.53-.32-1.14-.71-1.37-.4-.23-.72.01-.72.54V141c0 .53.32 1.15.72 1.38.4.23.71-.02.72-.55z"/><path id="riwvn" d="M432.81 110.71c0-.53-.32-1.15-.71-1.37-.4-.23-.72.01-.72.54v28.85c0 .53.32 1.15.72 1.38.4.23.71-.02.72-.55z"/><path id="riwvo" d="M428.89 108.44c0-.53-.33-1.14-.72-1.37-.4-.23-.72.01-.72.54v28.85c0 .53.32 1.15.72 1.38.4.23.72-.02.72-.55z"/><path id="riwvp" d="M458.24 118.3v-4.71l4.07-2.36v4.71z"/><path id="riwvq" d="M462.88 115.6v-4.71l4.07-2.36v4.71z"/><path id="riwvr" d="M467.53 112.9v-4.7l4.07-2.36v4.71z"/><path id="riwvs" d="M472.18 110.22v-4.71l4.07-2.36v4.71z"/><path id="riwvt" d="M476.82 107.52v-4.71l4.07-2.36v4.71z"/><path id="riwvu" d="M455.95 117.46c0-1.1-.66-1.6-1.48-1.13-.82.47-1.49 1.75-1.49 2.85s.67 1.6 1.49 1.12c.82-.47 1.48-1.75 1.48-2.84"/><path id="riwvv" d="M458.24 123.98v-4.71l4.07-2.36v4.71z"/><path id="riwvw" d="M462.88 121.28v-4.71l4.07-2.36v4.71z"/><path id="riwvx" d="M467.53 118.59v-4.71l4.07-2.36v4.71z"/><path id="riwvy" d="M472.18 115.9v-4.71l4.07-2.36v4.71z"/><path id="riwvz" d="M476.82 113.2v-4.7l4.07-2.36v4.71z"/><path id="riwvA" d="M455.95 123.14c0-1.1-.66-1.6-1.48-1.13-.82.47-1.49 1.75-1.49 2.85s.67 1.6 1.49 1.12c.82-.47 1.48-1.75 1.48-2.84"/><path id="riwvB" d="M458.15 133.86v-4.71l4.07-2.36v4.71z"/><path id="riwvC" d="M462.8 131.17v-4.71l4.07-2.36v4.71z"/><path id="riwvD" d="M467.44 128.48v-4.71l4.07-2.36v4.71z"/><path id="riwvE" d="M472.09 125.79v-4.72l4.07-2.35v4.71z"/><path id="riwvF" d="M476.74 123.09v-4.71l4.07-2.36v4.71z"/><path id="riwvG" d="M455.86 133.03c0-1.1-.66-1.6-1.48-1.13-.83.47-1.49 1.75-1.49 2.85s.66 1.6 1.49 1.12c.82-.47 1.48-1.75 1.48-2.84"/><path id="riwvH" d="M458.15 139.55v-4.71l4.07-2.36v4.71z"/><path id="riwvI" d="M462.8 136.85v-4.71l4.07-2.36v4.71z"/><path id="riwvJ" d="M467.44 134.16v-4.71l4.07-2.36v4.71z"/><path id="riwvK" d="M472.09 131.47v-4.71l4.07-2.36v4.71z"/><path id="riwvL" d="M476.74 128.77v-4.71l4.07-2.36v4.71z"/><path id="riwvM" d="M455.86 138.7c0-1.1-.66-1.6-1.48-1.12-.83.47-1.49 1.75-1.49 2.85s.66 1.6 1.49 1.12c.82-.47 1.48-1.75 1.48-2.84"/><path id="riwvN" d="M389.86 254l50.5-29.23v-100.2l-50.5 29.23z"/><path id="riwvO" d="M394.67 156.58l40.89-23.66v89.07l-40.89 23.66z"/><path id="riwvP" d="M389.86 254L361 237.3V137.08l28.86 16.7z"/><path id="riwva" d="M361 107.87v45.93h79.36v-45.93z"/><path id="riwvR" d="M361 137.1l50.5-29.23 28.86 16.7-50.5 29.23z"/><path id="riwvS" d="M386.17 204.9c0-.69-.42-1.49-.94-1.79-.51-.3-.93.02-.93.7v37.52c0 .7.42 1.5.93 1.79.52.3.94-.02.94-.7z"/><path id="riwvT" d="M381.07 201.95c0-.7-.42-1.49-.94-1.79-.51-.3-.93.02-.93.7v37.52c0 .7.42 1.5.93 1.8.52.29.94-.03.94-.72z"/><path id="riwvU" d="M375.97 199c0-.69-.42-1.49-.94-1.79-.51-.3-.93.02-.93.7v37.52c0 .7.42 1.5.93 1.8.52.3.94-.03.94-.72z"/><path id="riwvV" d="M370.86 196.05c0-.69-.42-1.49-.94-1.79-.51-.3-.93.02-.93.7v37.52c0 .7.42 1.5.93 1.8.52.29.94-.03.94-.72z"/><path id="riwvW" d="M365.76 193.09c0-.69-.42-1.49-.94-1.79-.51-.3-.93.02-.93.7v37.53c0 .68.42 1.48.93 1.78.52.3.94-.02.94-.7z"/><path id="riwvX" d="M403.91 167.93v-6.13l5.3-3.06v6.13z"/><path id="riwvY" d="M409.95 164.42v-6.13l5.3-3.06v6.13z"/><path id="riwvZ" d="M416 160.92v-6.13l5.3-3.06v6.13z"/><path id="riwvaa" d="M422.04 157.42v-6.13l5.3-3.06v6.13z"/><path id="riwvab" d="M428.08 153.92v-6.13l5.3-3.06v6.13z"/><path id="riwvac" d="M400.94 166.84c0-1.43-.87-2.09-1.94-1.47-1.06.62-1.93 2.28-1.93 3.7 0 1.43.87 2.09 1.93 1.47 1.07-.62 1.94-2.27 1.94-3.7"/><path id="riwvad" d="M403.91 175.31v-6.13l5.3-3.06v6.13z"/><path id="riwvae" d="M409.95 171.8v-6.12l5.3-3.06v6.13z"/><path id="riwvaf" d="M416 168.31v-6.13l5.3-3.06v6.13z"/><path id="riwvag" d="M422.04 164.81v-6.13l5.3-3.06v6.13z"/><path id="riwvah" d="M428.08 161.31v-6.13l5.3-3.06v6.13z"/><path id="riwvai" d="M400.94 174.23c0-1.43-.87-2.09-1.94-1.47-1.06.62-1.93 2.28-1.93 3.7 0 1.43.87 2.09 1.93 1.47 1.07-.62 1.94-2.28 1.94-3.7"/><path id="riwvaj" d="M403.94 187.7v-6.13l5.3-3.06v6.13z"/><path id="riwvak" d="M409.98 184.2v-6.13l5.3-3.06v6.13z"/><path id="riwval" d="M416.02 180.7v-6.13l5.3-3.06v6.13z"/><path id="riwvam" d="M422.06 177.2v-6.14l5.3-3.06v6.13z"/><path id="riwvan" d="M428.1 173.7v-6.14l5.3-3.06v6.13z"/><path id="riwvao" d="M400.97 186.6c0-1.42-.87-2.08-1.94-1.46-1.06.62-1.93 2.28-1.93 3.7 0 1.43.87 2.09 1.93 1.47 1.07-.62 1.94-2.28 1.94-3.7"/><path id="riwvap" d="M403.94 195.1v-6.14l5.3-3.06v6.13z"/><path id="riwvaq" d="M409.98 191.6v-6.14l5.3-3.06v6.13z"/><path id="riwvar" d="M416.02 188.08v-6.13l5.3-3.06v6.13z"/><path id="riwvas" d="M422.06 184.58v-6.13l5.3-3.06v6.13z"/><path id="riwvat" d="M428.1 181.08v-6.13l5.3-3.06v6.13z"/><path id="riwvau" d="M400.97 194c0-1.43-.87-2.09-1.94-1.47-1.06.62-1.93 2.28-1.93 3.7 0 1.43.87 2.09 1.93 1.47 1.07-.62 1.94-2.28 1.94-3.7"/><path id="riwvav" d="M404.69 207.24v-6.13l5.3-3.06v6.13z"/><path id="riwvaw" d="M410.73 203.73v-6.13l5.3-3.06v6.13z"/><path id="riwvax" d="M416.77 200.23v-6.13l5.3-3.06v6.13z"/><path id="riwvay" d="M422.81 196.73v-6.13l5.3-3.06v6.13z"/><path id="riwvaz" d="M428.85 193.23v-6.13l5.3-3.06v6.13z"/><path id="riwvaA" d="M401.72 206.15c0-1.43-.87-2.09-1.94-1.47-1.06.62-1.93 2.28-1.93 3.7 0 1.43.87 2.09 1.93 1.47 1.07-.62 1.94-2.27 1.94-3.7"/><path id="riwvaB" d="M404.69 214.62v-6.13l5.3-3.06v6.13z"/><path id="riwvaC" d="M410.73 211.12v-6.13l5.3-3.06v6.13z"/><path id="riwvaD" d="M416.77 207.62v-6.13l5.3-3.06v6.13z"/><path id="riwvaE" d="M422.81 204.12V198l5.3-3.06v6.13z"/><path id="riwvaF" d="M428.85 200.62v-6.13l5.3-3.06v6.13z"/><path id="riwvaG" d="M401.72 213.54c0-1.43-.87-2.09-1.94-1.47-1.06.62-1.93 2.28-1.93 3.7 0 1.43.87 2.09 1.93 1.47 1.07-.62 1.94-2.28 1.94-3.7"/><path id="riwvaH" d="M404.69 226.96v-6.13l5.3-3.06v6.13z"/><path id="riwvaI" d="M410.73 223.46v-6.13l5.3-3.06v6.13z"/><path id="riwvaJ" d="M416.77 219.96v-6.13l5.3-3.06v6.13z"/><path id="riwvaK" d="M422.81 216.46v-6.13l5.3-3.06v6.13z"/><path id="riwvaL" d="M428.85 212.95v-6.13l5.3-3.06v6.13z"/><path id="riwvaM" d="M401.72 225.88c0-1.43-.87-2.09-1.94-1.47-1.06.62-1.93 2.28-1.93 3.7 0 1.43.87 2.09 1.93 1.47 1.07-.62 1.94-2.27 1.94-3.7"/><path id="riwvaN" d="M404.69 234.35v-6.13l5.3-3.06v6.13z"/><path id="riwvaO" d="M410.73 230.85v-6.13l5.3-3.06v6.13z"/><path id="riwvaP" d="M416.77 227.35v-6.13l5.3-3.06v6.13z"/><path id="riwvaQ" d="M422.81 223.85v-6.13l5.3-3.06v6.13z"/><path id="riwvaR" d="M428.85 220.34v-6.13l5.3-3.06v6.13z"/><path id="riwvaS" d="M401.72 233.26c0-1.43-.87-2.09-1.94-1.47-1.06.62-1.93 2.28-1.93 3.7 0 1.43.87 2.09 1.93 1.47 1.07-.62 1.94-2.27 1.94-3.7"/><clipPath id="riwvQ"><use xlink:href="#riwva"/></clipPath></defs><g><g clip-path="url(#clip-7B69D6D5-4574-4DD7-964A-CA68FFF6B83F)" opacity=".35" transform="translate(-361 -73)"><g opacity=".35"><use fill="#fff" fill-opacity="0" stroke="#d7d7d7" stroke-linecap="round" stroke-miterlimit="50" stroke-width=".75" xlink:href="#riwvb"/></g><g opacity=".35"><use fill="#fff" fill-opacity="0" stroke="#d7d7d7" stroke-dasharray="5.56 5.56" stroke-linecap="round" stroke-miterlimit="50" stroke-width=".75" xlink:href="#riwvc"/></g><g opacity=".35"><use fill="#fff" fill-opacity="0" stroke="#d7d7d7" stroke-linecap="round" stroke-miterlimit="50" stroke-width=".75" xlink:href="#riwvd"/></g><g opacity=".35"><use fill="#fff" fill-opacity="0" stroke="#d7d7d7" stroke-dasharray="6.06 6.06" stroke-linecap="round" stroke-miterlimit="50" stroke-width=".75" xlink:href="#riwve"/></g><g opacity=".35"><use fill="#fff" fill-opacity="0" stroke="#d7d7d7" stroke-linecap="round" stroke-miterlimit="50" stroke-width=".75" xlink:href="#riwvf"/></g><g opacity=".35"><use fill="#a2dee8" xlink:href="#riwvg"/></g><g opacity=".35"><use fill="#ccf8ff" xlink:href="#riwvh"/></g><g opacity=".35"><use fill="#a2dee8" xlink:href="#riwvi"/></g><g opacity=".35"><use fill="#ccf8ff" xlink:href="#riwvj"/></g><g opacity=".35"><g opacity=".35"><use fill="#69f0ff" xlink:href="#riwvk"/></g><g opacity=".35"><use fill="#69f0ff" xlink:href="#riwvl"/></g><g opacity=".35"><use fill="#69f0ff" xlink:href="#riwvm"/></g><g opacity=".35"><use fill="#69f0ff" xlink:href="#riwvn"/></g><g opacity=".35"><use fill="#69f0ff" xlink:href="#riwvo"/></g><g opacity=".35"><use fill="#69f0ff" xlink:href="#riwvp"/></g><g opacity=".35"><use fill="#69f0ff" xlink:href="#riwvq"/></g><g opacity=".35"><use fill="#69f0ff" xlink:href="#riwvr"/></g><g opacity=".35"><use fill="#69f0ff" xlink:href="#riwvs"/></g><g opacity=".35"><use fill="#69f0ff" xlink:href="#riwvt"/></g><g opacity=".35"><use fill="#8bc53e" xlink:href="#riwvu"/></g><g opacity=".35"><use fill="#69f0ff" xlink:href="#riwvv"/></g><g opacity=".35"><use fill="#69f0ff" xlink:href="#riwvw"/></g><g opacity=".35"><use fill="#69f0ff" xlink:href="#riwvx"/></g><g opacity=".35"><use fill="#69f0ff" xlink:href="#riwvy"/></g><g opacity=".35"><use fill="#69f0ff" xlink:href="#riwvz"/></g><g opacity=".35"><use fill="#00394b" xlink:href="#riwvA"/></g><g opacity=".35"><use fill="#69f0ff" xlink:href="#riwvB"/></g><g opacity=".35"><use fill="#69f0ff" xlink:href="#riwvC"/></g><g opacity=".35"><use fill="#69f0ff" xlink:href="#riwvD"/></g><g opacity=".35"><use fill="#69f0ff" xlink:href="#riwvE"/></g><g opacity=".35"><use fill="#69f0ff" xlink:href="#riwvF"/></g><g opacity=".35"><use fill="#8bc53e" xlink:href="#riwvG"/></g><g opacity=".35"><use fill="#69f0ff" xlink:href="#riwvH"/></g><g opacity=".35"><use fill="#69f0ff" xlink:href="#riwvI"/></g><g opacity=".35"><use fill="#69f0ff" xlink:href="#riwvJ"/></g><g opacity=".35"><use fill="#69f0ff" xlink:href="#riwvK"/></g><g opacity=".35"><use fill="#69f0ff" xlink:href="#riwvL"/></g><g opacity=".35"><use fill="#00394b" xlink:href="#riwvM"/></g><g opacity=".35"><use fill="#58c2d2" xlink:href="#riwvN"/></g><g opacity=".35"><use fill="#afefff" xlink:href="#riwvO"/></g><g opacity=".35"><use fill="#58c2d2" xlink:href="#riwvP"/></g><g opacity=".35"><g opacity=".35"/><g clip-path="url(#riwvQ)" opacity=".35"><use fill="#afefff" xlink:href="#riwvR"/></g></g><g opacity=".35"><use fill="#007aa2" xlink:href="#riwvS"/></g><g opacity=".35"><use fill="#007aa2" xlink:href="#riwvT"/></g><g opacity=".35"><use fill="#007aa2" xlink:href="#riwvU"/></g><g opacity=".35"><use fill="#007aa2" xlink:href="#riwvV"/></g><g opacity=".35"><use fill="#007aa2" xlink:href="#riwvW"/></g><g opacity=".35"><use fill="#007aa2" xlink:href="#riwvX"/></g><g opacity=".35"><use fill="#007aa2" xlink:href="#riwvY"/></g><g opacity=".35"><use fill="#007aa2" xlink:href="#riwvZ"/></g><g opacity=".35"><use fill="#007aa2" xlink:href="#riwvaa"/></g><g opacity=".35"><use fill="#007aa2" xlink:href="#riwvab"/></g><g opacity=".35"><use fill="#8bc53e" xlink:href="#riwvac"/></g><g opacity=".35"><use fill="#007aa2" xlink:href="#riwvad"/></g><g opacity=".35"><use fill="#007aa2" xlink:href="#riwvae"/></g><g opacity=".35"><use fill="#007aa2" xlink:href="#riwvaf"/></g><g opacity=".35"><use fill="#007aa2" xlink:href="#riwvag"/></g><g opacity=".35"><use fill="#007aa2" xlink:href="#riwvah"/></g><g opacity=".35"><use fill="#faaf3a" xlink:href="#riwvai"/></g><g opacity=".35"><use fill="#007aa2" xlink:href="#riwvaj"/></g><g opacity=".35"><use fill="#007aa2" xlink:href="#riwvak"/></g><g opacity=".35"><use fill="#007aa2" xlink:href="#riwval"/></g><g opacity=".35"><use fill="#007aa2" xlink:href="#riwvam"/></g><g opacity=".35"><use fill="#007aa2" xlink:href="#riwvan"/></g><g opacity=".35"><use fill="#8bc53e" xlink:href="#riwvao"/></g><g opacity=".35"><use fill="#007aa2" xlink:href="#riwvap"/></g><g opacity=".35"><use fill="#007aa2" xlink:href="#riwvaq"/></g><g opacity=".35"><use fill="#007aa2" xlink:href="#riwvar"/></g><g opacity=".35"><use fill="#007aa2" xlink:href="#riwvas"/></g><g opacity=".35"><use fill="#007aa2" xlink:href="#riwvat"/></g><g opacity=".35"><use fill="#faaf3a" xlink:href="#riwvau"/></g><g opacity=".35"><use fill="#007aa2" xlink:href="#riwvav"/></g><g opacity=".35"><use fill="#007aa2" xlink:href="#riwvaw"/></g><g opacity=".35"><use fill="#007aa2" xlink:href="#riwvax"/></g><g opacity=".35"><use fill="#007aa2" xlink:href="#riwvay"/></g><g opacity=".35"><use fill="#007aa2" xlink:href="#riwvaz"/></g><g opacity=".35"><use fill="#8bc53e" xlink:href="#riwvaA"/></g><g opacity=".35"><use fill="#007aa2" xlink:href="#riwvaB"/></g><g opacity=".35"><use fill="#007aa2" xlink:href="#riwvaC"/></g><g opacity=".35"><use fill="#007aa2" xlink:href="#riwvaD"/></g><g opacity=".35"><use fill="#007aa2" xlink:href="#riwvaE"/></g><g opacity=".35"><use fill="#007aa2" xlink:href="#riwvaF"/></g><g opacity=".35"><use fill="#faaf3a" xlink:href="#riwvaG"/></g><g opacity=".35"><use fill="#007aa2" xlink:href="#riwvaH"/></g><g opacity=".35"><use fill="#007aa2" xlink:href="#riwvaI"/></g><g opacity=".35"><use fill="#007aa2" xlink:href="#riwvaJ"/></g><g opacity=".35"><use fill="#007aa2" xlink:href="#riwvaK"/></g><g opacity=".35"><use fill="#007aa2" xlink:href="#riwvaL"/></g><g opacity=".35"><use fill="#8bc53e" xlink:href="#riwvaM"/></g><g opacity=".35"><use fill="#007aa2" xlink:href="#riwvaN"/></g><g opacity=".35"><use fill="#007aa2" xlink:href="#riwvaO"/></g><g opacity=".35"><use fill="#007aa2" xlink:href="#riwvaP"/></g><g opacity=".35"><use fill="#007aa2" xlink:href="#riwvaQ"/></g><g opacity=".35"><use fill="#007aa2" xlink:href="#riwvaR"/></g><g opacity=".35"><use fill="#faaf3a" xlink:href="#riwvaS"/></g></g></g></g></svg>