<?xml version="1.0" standalone="no"?>
<!DOCTYPE svg PUBLIC "-//W3C//DTD SVG 20010904//EN"
 "http://www.w3.org/TR/2001/REC-SVG-20010904/DTD/svg10.dtd">
<svg version="1.0" xmlns="http://www.w3.org/2000/svg"
 width="225.000000pt" height="225.000000pt" viewBox="0 0 225.000000 225.000000"
 preserveAspectRatio="xMidYMid meet">
<metadata>
Created by potrace 1.11, written by Peter Selinger 2001-2013
</metadata>
<g transform="translate(0.000000,225.000000) scale(0.100000,-0.100000)"
fill="#000000" stroke="none">
<path d="M518 2236 c-90 -24 -168 -107 -189 -201 -15 -67 -6 -102 31 -123 18
-11 32 -28 36 -47 27 -131 165 -201 287 -147 53 24 104 87 113 141 4 26 15 42
38 56 26 17 31 27 34 67 7 102 -83 221 -189 252 -62 19 -97 19 -161 2z m42
-108 c0 -54 11 -71 41 -66 21 3 24 9 27 56 3 44 6 52 23 52 16 0 19 -7 19 -42
0 -24 4 -49 9 -56 13 -22 54 -10 61 17 5 20 7 21 17 9 18 -21 43 -84 43 -108
0 -19 -6 -20 -205 -20 -165 0 -205 3 -205 14 0 20 21 78 39 105 l15 24 6 -24
c5 -19 12 -24 35 -24 28 0 30 3 33 40 4 53 8 65 27 65 11 0 15 -11 15 -42z"/>
<path d="M1206 1637 l-89 -32 -14 -48 c-8 -27 -12 -54 -10 -60 2 -6 24 -18 50
-26 26 -9 48 -20 49 -24 3 -14 -55 -207 -63 -207 -4 0 -30 19 -58 43 -39 32
-72 78 -141 194 -50 84 -98 157 -108 161 -9 5 -32 12 -49 15 l-33 7 0 -345 0
-345 55 0 55 0 0 -395 0 -395 -110 0 -110 0 0 275 0 275 -35 0 -35 0 0 -275 0
-275 -105 0 -105 0 0 395 0 395 50 0 50 0 0 346 c0 312 -2 346 -16 340 -9 -3
-23 -6 -33 -6 -9 0 -25 -6 -34 -12 -19 -15 -327 -682 -327 -709 0 -71 87 -115
138 -71 12 9 50 81 86 159 89 196 85 191 86 102 0 -74 -1 -77 -26 -83 -52 -14
-55 -38 -52 -481 3 -380 4 -404 22 -424 11 -12 27 -21 38 -21 11 0 18 -7 18
-19 0 -31 48 -80 84 -87 48 -8 94 18 115 66 9 22 23 41 31 43 25 7 60 -11 60
-30 1 -38 56 -83 102 -83 39 0 88 37 95 71 4 19 14 34 28 39 55 21 55 20 55
468 l0 413 -25 24 c-13 14 -31 25 -40 25 -13 0 -15 18 -15 117 l0 118 44 -50
c24 -28 77 -79 119 -113 69 -59 75 -66 66 -89 -14 -38 -11 -68 11 -88 28 -26
68 -13 85 29 9 21 23 36 39 40 50 12 70 103 31 136 -10 9 -6 35 26 142 21 72
40 133 43 135 2 2 27 -2 54 -11 39 -11 53 -12 60 -3 15 18 64 187 59 200 -2 7
-38 22 -78 34 -41 12 -81 24 -89 27 -8 2 -55 -10 -104 -27z"/>
<path d="M530 1510 l0 -150 70 0 71 0 -3 148 -3 147 -67 3 -68 3 0 -151z"/>
<path d="M2039 1433 l-106 -108 -27 -117 -27 -116 72 -98 73 -98 -50 -94 c-27
-52 -50 -98 -52 -102 -1 -3 16 -31 40 -60 45 -57 29 -54 -41 9 l-43 38 26 89
c14 49 26 94 26 100 0 6 -26 34 -58 62 l-58 50 -101 -65 -101 -64 -43 -107
c-23 -59 -50 -116 -60 -126 -10 -11 -74 -43 -141 -72 l-123 -51 -8 -124 c-5
-73 -14 -132 -21 -144 -8 -11 -70 -58 -140 -105 -200 -135 -242 -125 507 -128
l627 -2 -2 767 -3 768 -30 3 c-27 3 -43 -10 -136 -105z"/>
<path d="M1505 1106 l-60 -23 1 -71 c0 -40 3 -74 7 -78 8 -8 106 17 117 31 5
6 12 45 16 88 8 89 10 88 -81 53z"/>
<path d="M1330 805 c-12 -36 -19 -72 -16 -80 6 -15 94 -74 112 -75 11 0 54 82
54 103 0 16 -101 117 -117 117 -6 0 -21 -29 -33 -65z"/>
</g>
</svg>
