<svg xmlns="http://www.w3.org/2000/svg" xmlns:xlink="http://www.w3.org/1999/xlink" width="22" height="25" viewBox="0 0 22 25"><defs><path id="a" d="M973.67 44.54a.68.68 0 0 1-.67.54h-6.52a3.83 3.83 0 0 1-1.01 1.97 3.62 3.62 0 0 1-5.26 0 3.83 3.83 0 0 1-1.01-1.97h-6.52a.68.68 0 0 1-.28-1.3c2.57-1.17 2.67-6.15 2.67-6.28v-3.34a7.78 7.78 0 0 1 4.76-7.16 3.01 3.01 0 0 1 6.02 0 7.78 7.78 0 0 1 4.76 7.16v3.34c0 .13.1 5.11 2.67 6.27.3.14.45.45.39.77zm-17.88-3.15a7.56 7.56 0 0 1-1.2 2.32h16.5a7.57 7.57 0 0 1-1.2-2.32zm5.47-14.84a7.77 7.77 0 0 1 3.16 0 1.65 1.65 0 0 0-3.16 0zm-5.11 13.47h13.38c-.27-1.33-.28-2.4-.29-2.5v-3.36a6.41 6.41 0 0 0-12.8 0v3.35c0 .1-.02 1.18-.3 2.51zm8.93 5.06h-4.48c.3 1 1.2 1.75 2.24 1.75a2.4 2.4 0 0 0 2.24-1.75z"/></defs><use fill="#1d8dc3" xlink:href="#a" transform="translate(-952 -24)"/></svg>