<svg width="50" height="50" viewBox="0 0 50 50" xmlns="http://www.w3.org/2000/svg"><title>chip</title><path d="M47.775 27.077a2.134 2.134 0 0 0 2.128-2.128 2.134 2.134 0 0 0-2.128-2.128h-6.049v-2.964h6.049a2.134 2.134 0 0 0 2.128-2.128 2.134 2.134 0 0 0-2.128-2.128h-6.049v-5.204a2.134 2.134 0 0 0-2.128-2.128h-5.306v-6.14A2.134 2.134 0 0 0 32.164 0a2.134 2.134 0 0 0-2.128 2.128V8.29h-2.974V2.13A2.134 2.134 0 0 0 24.934 0a2.134 2.134 0 0 0-2.129 2.128V8.29h-2.942V2.13A2.134 2.134 0 0 0 17.734 0a2.134 2.134 0 0 0-2.128 2.128V8.29h-4.99a2.134 2.134 0 0 0-2.128 2.129v5.203H2.133A2.134 2.134 0 0 0 .005 17.75c0 1.172.957 2.129 2.128 2.129h6.375v2.973H2.133A2.134 2.134 0 0 0 .005 24.98c0 1.17.957 2.128 2.128 2.128h6.375v2.83H2.133a2.134 2.134 0 0 0-2.128 2.13c0 1.17.957 2.128 2.128 2.128h6.375v5.203c0 1.171.957 2.128 2.128 2.128h4.99v6.263c0 1.171.958 2.129 2.129 2.129a2.134 2.134 0 0 0 2.128-2.129v-6.263h2.973v6.263c0 1.171.958 2.129 2.129 2.129a2.134 2.134 0 0 0 2.128-2.129v-6.263h2.933v6.263c0 1.171.957 2.129 2.128 2.129 1.06 0 2.016-.958 2.128-2.129v-6.263h5.306c1.171 0 2.128-.845 2.128-2.128v-5.203h6.05a2.134 2.134 0 0 0 2.127-2.129 2.134 2.134 0 0 0-2.128-2.128h-6.049v-2.862h6.039zM37.48 37.373H12.632V12.525H37.48v24.848z" fill="#3DBDB6" opacity=".7"/></svg>