<svg width="66" height="65" viewBox="0 0 66 65" xmlns="http://www.w3.org/2000/svg"><title>circuit</title><g fill="#45ADAA"><path d="M58.929 35.628c-3.498 0-6.402 2.806-6.965 6.476h-4.821c-3.9 0-7.072 3.484-7.072 7.766v14.25h2.358V49.87c0-2.854 2.115-5.176 4.714-5.176h4.82c.564 3.669 3.468 6.476 6.966 6.476 3.899 0 7.071-3.486 7.071-7.771s-3.172-7.771-7.071-7.771zm0 12.951c-2.6 0-4.715-2.324-4.715-5.18 0-2.857 2.115-5.18 4.715-5.18 2.599 0 4.714 2.323 4.714 5.18 0 2.856-2.115 5.18-4.714 5.18zM27.107 16.2h-4.714c0-4.284-3.172-7.77-7.072-7.77-3.899 0-7.071 3.486-7.071 7.77 0 4.286 3.172 7.772 7.071 7.772 3.072 0 5.686-2.167 6.66-5.18h5.126c2.6 0 4.714 2.327 4.714 5.188v40.14h2.358V23.98c0-4.29-3.173-7.78-7.072-7.78zm-11.786 5.181c-2.599 0-4.714-2.324-4.714-5.18s2.115-5.18 4.714-5.18c2.6 0 4.715 2.324 4.715 5.18s-2.115 5.18-4.715 5.18z"/><path d="M18.857 35.628h-4.82c-.564-3.67-3.468-6.476-6.966-6.476C3.172 29.152 0 32.638 0 36.923s3.172 7.77 7.071 7.77c3.498 0 6.402-2.806 6.965-6.475h4.821c2.6 0 4.714 2.326 4.714 5.185v20.718h2.358V43.403c0-4.287-3.173-7.775-7.072-7.775zM7.071 42.104c-2.599 0-4.714-2.325-4.714-5.18 0-2.857 2.115-5.181 4.714-5.181 2.6 0 4.715 2.324 4.715 5.18s-2.115 5.18-4.715 5.18zm41.092-15.542h3.8c.564 3.67 3.468 6.476 6.966 6.476 3.899 0 7.071-3.486 7.071-7.771s-3.172-7.77-7.071-7.77c-3.498 0-6.402 2.806-6.965 6.475h-3.801c-1.856 0-3.365-1.66-3.365-3.7V.66H42.44v19.613c0 3.468 2.566 6.29 5.722 6.29zm10.766-6.476c2.599 0 4.714 2.324 4.714 5.18 0 2.857-2.115 5.181-4.714 5.181-2.6 0-4.715-2.324-4.715-5.18 0-2.857 2.115-5.18 4.715-5.18z"/></g></svg>