<svg width="60" height="63" viewBox="0 0 60 63" xmlns="http://www.w3.org/2000/svg"><title>clock</title><g fill="#45ADAA"><path d="M30 .897c-16.542 0-30 13.804-30 30.77s13.458 30.769 30 30.769 30-13.803 30-30.77C60 14.702 46.542.898 30 .898zm0 59.488c-15.439 0-28-12.883-28-28.718S14.561 2.949 30 2.949s28 12.883 28 28.718-12.561 28.718-28 28.718z"/><path d="M31 27.586V17.184c0-.568-.448-1.026-1-1.026s-1 .458-1 1.026v10.402c-1.399.373-2.494 1.496-2.858 2.93H19c-.552 0-1 .46-1 1.027s.448 1.025 1 1.025h7.142c.447 1.764 2 3.077 3.858 3.077 2.206 0 4-1.84 4-4.102 0-1.907-1.28-3.499-3-3.957zm-1 6.008c-1.103 0-2-.92-2-2.051 0-1.132.897-2.052 2-2.052s2 .92 2 2.052c0 1.13-.897 2.05-2 2.05zm0-22.564c.552 0 1-.459 1-1.026V8.978c0-.567-.448-1.025-1-1.025s-1 .458-1 1.025v1.026c0 .567.448 1.026 1 1.026zm0 41.025c-.552 0-1 .459-1 1.026v1.026c0 .567.448 1.025 1 1.025s1-.458 1-1.025V53.08c0-.567-.448-1.026-1-1.026zm22-21.538h-1c-.552 0-1 .458-1 1.026 0 .567.448 1.025 1 1.025h1c.552 0 1-.458 1-1.025 0-.568-.448-1.026-1-1.026zm-43 0H8c-.552 0-1 .458-1 1.026 0 .567.448 1.025 1 1.025h1c.552 0 1-.458 1-1.025 0-.568-.448-1.026-1-1.026zm35.849-15.655l-.707.725a1.043 1.043 0 0 0 0 1.45.985.985 0 0 0 1.414 0l.707-.725a1.043 1.043 0 0 0 0-1.45.982.982 0 0 0-1.414 0zM14.444 46.047l-.707.725a1.043 1.043 0 0 0 0 1.45.985.985 0 0 0 1.414 0l.707-.725a1.043 1.043 0 0 0 0-1.45.982.982 0 0 0-1.414 0zm31.112 0a.981.981 0 0 0-1.414 0 1.043 1.043 0 0 0 0 1.45l.707.726a.985.985 0 0 0 1.414 0 1.043 1.043 0 0 0 0-1.45l-.707-.726zM15.151 14.862a.981.981 0 0 0-1.414 0 1.043 1.043 0 0 0 0 1.45l.707.725a.985.985 0 0 0 1.414 0 1.043 1.043 0 0 0 0-1.45l-.707-.725z"/></g></svg>