<svg width="60" height="54" viewBox="0 0 60 54" xmlns="http://www.w3.org/2000/svg"><title>cloud-computing (1)</title><g fill="#45ADAA"><path d="M50.975 17.181C50.448 7.806 43.029.313 34.084.313c-5.43 0-10.688 2.773-13.946 7.3-.074-.041-.153-.068-.228-.107a8.451 8.451 0 0 0-.605-.28 8.684 8.684 0 0 0-.961-.33c-.116-.032-.231-.066-.349-.094a8.616 8.616 0 0 0-.683-.13c-.102-.015-.202-.036-.305-.048A8.912 8.912 0 0 0 16 6.563c-4.962 0-9 4.205-9 9.375 0 .134.007.265.016.396C2.857 18.696 0 23.644 0 28.598c0 7.378 5.762 13.381 12.845 13.381H18c.552 0 1-.465 1-1.041 0-.577-.448-1.042-1-1.042h-5.155C6.865 39.896 2 34.828 2 28.598c0-4.327 2.705-8.819 6.432-10.68L9 17.635v-.656c0-.128.008-.26.015-.39l.009-.183-.012-.196c-.005-.09-.012-.18-.012-.272 0-4.02 3.14-7.292 7-7.292.309 0 .614.028.917.07.078.01.155.024.232.037a6.5 6.5 0 0 1 .792.185c.034.01.069.016.102.027.286.09.565.206.838.335.069.032.137.068.205.103.242.124.479.262.707.416C21.72 11.119 23 13.374 23 15.938c0 .576.448 1.041 1 1.041s1-.465 1-1.041c0-2.87-1.246-5.437-3.2-7.158 2.866-3.906 7.588-6.384 12.284-6.384 7.744 0 14.178 6.39 14.848 14.465-1.022-.075-2.553-.113-4.083.13-.546.087-.921.618-.838 1.187.075.516.501.886.987.886.05 0 .101-.005.152-.013 2.224-.35 4.543-.022 4.684-.002C54.49 19.971 58 24.439 58 29.45c0 5.76-4.499 10.446-10.028 10.446H44c-.552 0-1 .465-1 1.042 0 .576.448 1.041 1 1.041h3.972C54.604 41.98 60 36.36 60 29.45c0-5.718-3.827-10.846-9.025-12.269z"/><path d="M31.708 27.702a.988.988 0 0 0-.326-.226.964.964 0 0 0-.764 0 .999.999 0 0 0-.326.226l-7.999 8.332a1.071 1.071 0 0 0 0 1.473.977.977 0 0 0 .707.306.977.977 0 0 0 .707-.306L30 30.952v21.444c0 .576.448 1.042 1 1.042s1-.466 1-1.042V30.952l6.293 6.555a.977.977 0 0 0 .707.306.977.977 0 0 0 .707-.306 1.071 1.071 0 0 0 0-1.473l-7.999-8.332z"/></g></svg>