<svg width="50" height="50" viewBox="0 0 50 50" xmlns="http://www.w3.org/2000/svg"><title>connection</title><path d="M46.413 23.765a6.862 6.862 0 0 0-3.347-.898l-1.296-5.704c3.01-2.071 3.898-6.183 1.96-9.326-2-3.245-6.276-4.255-9.52-2.255a6.895 6.895 0 0 0-2.266 2.275l-4.816-1.49C26.842 2.807 23.862 0 20.23 0a6.924 6.924 0 0 0-6.919 6.918c0 1 .215 1.94.592 2.796l-4.357 4.041c-3.163-1.296-6.898-.071-8.633 2.98-1.887 3.316-.724 7.55 2.592 9.428.867.49 1.806.776 2.735.868l1.388 6.122c-2.592 2.163-3.276 5.98-1.45 8.939 2 3.245 6.276 4.255 9.521 2.255a6.895 6.895 0 0 0 2.265-2.276l4.827 1.49a6.926 6.926 0 0 0 6.898 6.357A6.924 6.924 0 0 0 36.607 43a6.931 6.931 0 0 0-.857-3.337l4.061-3.765c3.276 1.704 7.357.51 9.194-2.725 1.888-3.295.725-7.53-2.592-9.408zm-10-14.632a2.743 2.743 0 0 1 3.766.887 2.743 2.743 0 0 1-.888 3.766 2.743 2.743 0 0 1-3.765-.888 2.734 2.734 0 0 1 .887-3.765zm1.347 9.245l1.296 5.714a6.95 6.95 0 0 0-2.082 2.265 6.907 6.907 0 0 0-.122 6.592l-4.143 3.847a6.807 6.807 0 0 0-3.02-.694 6.93 6.93 0 0 0-5.95 3.388l-4.765-1.48a6.869 6.869 0 0 0-1.01-3.173c-1.398-2.266-3.908-3.439-6.398-3.266l-1.224-5.408a6.894 6.894 0 0 0 2.602-2.592 6.914 6.914 0 0 0-.163-7.112l3.908-3.622a6.914 6.914 0 0 0 9.49-2.398l4.775 1.48a6.906 6.906 0 0 0 6.806 6.459zM20.24 4.173a2.735 2.735 0 1 1 0 5.47 2.735 2.735 0 0 1 0-5.47zM4.556 18.806c.745-1.306 2.418-1.775 3.725-1.03 1.306.744 1.775 2.418 1.03 3.724-.745 1.306-2.418 1.776-3.724 1.03a2.73 2.73 0 0 1-1.03-3.724zm8.96 21.99a2.743 2.743 0 0 1-3.766-.888 2.743 2.743 0 0 1 .888-3.765 2.743 2.743 0 0 1 3.765.888 2.734 2.734 0 0 1-.888 3.765zm16.173 4.96a2.735 2.735 0 1 1 0-5.47 2.735 2.735 0 0 1 0 5.47zm15.683-14.634c-.744 1.307-2.418 1.776-3.724 1.031-1.306-.745-1.776-2.418-1.03-3.724.744-1.307 2.418-1.776 3.724-1.031a2.73 2.73 0 0 1 1.03 3.724z" fill="#3DBDB6" opacity=".7"/></svg>