<svg xmlns="http://www.w3.org/2000/svg" xmlns:xlink="http://www.w3.org/1999/xlink" width="125" height="181" viewBox="0 0 125 181"><defs><path id="b" d="M469 83v3"/><path id="c" d="M469 92v72"/><path id="d" d="M469 167v3.37l-3 1.63"/><path id="e" d="M460 175l-57 31"/><path id="f" d="M400 208l-3 2"/><path id="g" d="M447 107.51V155l39-22.51V85z"/><path id="h" d="M450 109.18L482 91v38.82L450 148z"/><path id="i" d="M447 155l-22-12.79V95l22 12.79z"/><path id="j" d="M463.82 73L425 95.27 447.18 108 486 85.73z"/><path id="k" d="M444.6 117.52c0-.53-.33-1.14-.72-1.37-.4-.23-.72.01-.72.54v28.85c0 .53.32 1.15.72 1.38.4.23.71-.02.71-.55z"/><path id="l" d="M440.66 115.25c0-.53-.32-1.14-.71-1.37-.4-.23-.72.01-.72.54v28.85c0 .53.32 1.15.72 1.38.4.23.71-.02.71-.55z"/><path id="m" d="M436.74 112.98c0-.53-.32-1.14-.71-1.37-.4-.23-.72.01-.72.54V141c0 .53.32 1.15.72 1.38.4.23.71-.02.72-.55z"/><path id="n" d="M432.81 110.71c0-.53-.32-1.15-.71-1.37-.4-.23-.72.01-.72.54v28.85c0 .53.32 1.15.72 1.38.4.23.71-.02.72-.55z"/><path id="o" d="M428.89 108.44c0-.53-.33-1.14-.72-1.37-.4-.23-.72.01-.72.54v28.85c0 .53.32 1.15.72 1.38.4.23.72-.02.72-.55z"/><path id="p" d="M458.24 118.3v-4.71l4.07-2.36v4.71z"/><path id="q" d="M462.88 115.6v-4.71l4.07-2.36v4.71z"/><path id="r" d="M467.53 112.9v-4.7l4.07-2.36v4.71z"/><path id="s" d="M472.18 110.22v-4.71l4.07-2.36v4.71z"/><path id="t" d="M476.82 107.52v-4.71l4.07-2.36v4.71z"/><path id="u" d="M455.95 117.46c0-1.1-.66-1.6-1.48-1.13-.82.47-1.49 1.75-1.49 2.85s.67 1.6 1.49 1.12c.82-.47 1.48-1.75 1.48-2.84"/><path id="v" d="M458.24 123.98v-4.71l4.07-2.36v4.71z"/><path id="w" d="M462.88 121.28v-4.71l4.07-2.36v4.71z"/><path id="x" d="M467.53 118.59v-4.71l4.07-2.36v4.71z"/><path id="y" d="M472.18 115.9v-4.71l4.07-2.36v4.71z"/><path id="z" d="M476.82 113.2v-4.7l4.07-2.36v4.71z"/><path id="A" d="M455.95 123.14c0-1.1-.66-1.6-1.48-1.13-.82.47-1.49 1.75-1.49 2.85s.67 1.6 1.49 1.12c.82-.47 1.48-1.75 1.48-2.84"/><path id="B" d="M458.15 133.86v-4.71l4.07-2.36v4.71z"/><path id="C" d="M462.8 131.17v-4.71l4.07-2.36v4.71z"/><path id="D" d="M467.44 128.48v-4.71l4.07-2.36v4.71z"/><path id="E" d="M472.09 125.79v-4.72l4.07-2.35v4.71z"/><path id="F" d="M476.74 123.09v-4.71l4.07-2.36v4.71z"/><path id="G" d="M455.86 133.03c0-1.1-.66-1.6-1.48-1.13-.83.47-1.49 1.75-1.49 2.85s.66 1.6 1.49 1.12c.82-.47 1.48-1.75 1.48-2.84"/><path id="H" d="M458.15 139.55v-4.71l4.07-2.36v4.71z"/><path id="I" d="M462.8 136.85v-4.71l4.07-2.36v4.71z"/><path id="J" d="M467.44 134.16v-4.71l4.07-2.36v4.71z"/><path id="K" d="M472.09 131.47v-4.71l4.07-2.36v4.71z"/><path id="L" d="M476.74 128.77v-4.71l4.07-2.36v4.71z"/><path id="M" d="M455.86 138.7c0-1.1-.66-1.6-1.48-1.12-.83.47-1.49 1.75-1.49 2.85s.66 1.6 1.49 1.12c.82-.47 1.48-1.75 1.48-2.84"/><path id="N" d="M389.86 254l50.5-29.23v-100.2l-50.5 29.23z"/><path id="O" d="M394.67 156.58l40.89-23.66v89.07l-40.89 23.66z"/><path id="P" d="M389.86 254L361 237.3V137.08l28.86 16.7z"/><path id="a" d="M361 107.87v45.93h79.36v-45.93z"/><path id="R" d="M361 137.1l50.5-29.23 28.86 16.7-50.5 29.23z"/><path id="S" d="M386.17 204.9c0-.69-.42-1.49-.94-1.79-.51-.3-.93.02-.93.7v37.52c0 .7.42 1.5.93 1.79.52.3.94-.02.94-.7z"/><path id="T" d="M381.07 201.95c0-.7-.42-1.49-.94-1.79-.51-.3-.93.02-.93.7v37.52c0 .7.42 1.5.93 1.8.52.29.94-.03.94-.72z"/><path id="U" d="M375.97 199c0-.69-.42-1.49-.94-1.79-.51-.3-.93.02-.93.7v37.52c0 .7.42 1.5.93 1.8.52.3.94-.03.94-.72z"/><path id="V" d="M370.86 196.05c0-.69-.42-1.49-.94-1.79-.51-.3-.93.02-.93.7v37.52c0 .7.42 1.5.93 1.8.52.29.94-.03.94-.72z"/><path id="W" d="M365.76 193.09c0-.69-.42-1.49-.94-1.79-.51-.3-.93.02-.93.7v37.53c0 .68.42 1.48.93 1.78.52.3.94-.02.94-.7z"/><path id="X" d="M403.91 167.93v-6.13l5.3-3.06v6.13z"/><path id="Y" d="M409.95 164.42v-6.13l5.3-3.06v6.13z"/><path id="Z" d="M416 160.92v-6.13l5.3-3.06v6.13z"/><path id="aa" d="M422.04 157.42v-6.13l5.3-3.06v6.13z"/><path id="ab" d="M428.08 153.92v-6.13l5.3-3.06v6.13z"/><path id="ac" d="M400.94 166.84c0-1.43-.87-2.09-1.94-1.47-1.06.62-1.93 2.28-1.93 3.7 0 1.43.87 2.09 1.93 1.47 1.07-.62 1.94-2.27 1.94-3.7"/><path id="ad" d="M403.91 175.31v-6.13l5.3-3.06v6.13z"/><path id="ae" d="M409.95 171.8v-6.12l5.3-3.06v6.13z"/><path id="af" d="M416 168.31v-6.13l5.3-3.06v6.13z"/><path id="ag" d="M422.04 164.81v-6.13l5.3-3.06v6.13z"/><path id="ah" d="M428.08 161.31v-6.13l5.3-3.06v6.13z"/><path id="ai" d="M400.94 174.23c0-1.43-.87-2.09-1.94-1.47-1.06.62-1.93 2.28-1.93 3.7 0 1.43.87 2.09 1.93 1.47 1.07-.62 1.94-2.28 1.94-3.7"/><path id="aj" d="M403.94 187.7v-6.13l5.3-3.06v6.13z"/><path id="ak" d="M409.98 184.2v-6.13l5.3-3.06v6.13z"/><path id="al" d="M416.02 180.7v-6.13l5.3-3.06v6.13z"/><path id="am" d="M422.06 177.2v-6.14l5.3-3.06v6.13z"/><path id="an" d="M428.1 173.7v-6.14l5.3-3.06v6.13z"/><path id="ao" d="M400.97 186.6c0-1.42-.87-2.08-1.94-1.46-1.06.62-1.93 2.28-1.93 3.7 0 1.43.87 2.09 1.93 1.47 1.07-.62 1.94-2.28 1.94-3.7"/><path id="ap" d="M403.94 195.1v-6.14l5.3-3.06v6.13z"/><path id="aq" d="M409.98 191.6v-6.14l5.3-3.06v6.13z"/><path id="ar" d="M416.02 188.08v-6.13l5.3-3.06v6.13z"/><path id="as" d="M422.06 184.58v-6.13l5.3-3.06v6.13z"/><path id="at" d="M428.1 181.08v-6.13l5.3-3.06v6.13z"/><path id="au" d="M400.97 194c0-1.43-.87-2.09-1.94-1.47-1.06.62-1.93 2.28-1.93 3.7 0 1.43.87 2.09 1.93 1.47 1.07-.62 1.94-2.28 1.94-3.7"/><path id="av" d="M404.69 207.24v-6.13l5.3-3.06v6.13z"/><path id="aw" d="M410.73 203.73v-6.13l5.3-3.06v6.13z"/><path id="ax" d="M416.77 200.23v-6.13l5.3-3.06v6.13z"/><path id="ay" d="M422.81 196.73v-6.13l5.3-3.06v6.13z"/><path id="az" d="M428.85 193.23v-6.13l5.3-3.06v6.13z"/><path id="aA" d="M401.72 206.15c0-1.43-.87-2.09-1.94-1.47-1.06.62-1.93 2.28-1.93 3.7 0 1.43.87 2.09 1.93 1.47 1.07-.62 1.94-2.27 1.94-3.7"/><path id="aB" d="M404.69 214.62v-6.13l5.3-3.06v6.13z"/><path id="aC" d="M410.73 211.12v-6.13l5.3-3.06v6.13z"/><path id="aD" d="M416.77 207.62v-6.13l5.3-3.06v6.13z"/><path id="aE" d="M422.81 204.12V198l5.3-3.06v6.13z"/><path id="aF" d="M428.85 200.62v-6.13l5.3-3.06v6.13z"/><path id="aG" d="M401.72 213.54c0-1.43-.87-2.09-1.94-1.47-1.06.62-1.93 2.28-1.93 3.7 0 1.43.87 2.09 1.93 1.47 1.07-.62 1.94-2.28 1.94-3.7"/><path id="aH" d="M404.69 226.96v-6.13l5.3-3.06v6.13z"/><path id="aI" d="M410.73 223.46v-6.13l5.3-3.06v6.13z"/><path id="aJ" d="M416.77 219.96v-6.13l5.3-3.06v6.13z"/><path id="aK" d="M422.81 216.46v-6.13l5.3-3.06v6.13z"/><path id="aL" d="M428.85 212.95v-6.13l5.3-3.06v6.13z"/><path id="aM" d="M401.72 225.88c0-1.43-.87-2.09-1.94-1.47-1.06.62-1.93 2.28-1.93 3.7 0 1.43.87 2.09 1.93 1.47 1.07-.62 1.94-2.27 1.94-3.7"/><path id="aN" d="M404.69 234.35v-6.13l5.3-3.06v6.13z"/><path id="aO" d="M410.73 230.85v-6.13l5.3-3.06v6.13z"/><path id="aP" d="M416.77 227.35v-6.13l5.3-3.06v6.13z"/><path id="aQ" d="M422.81 223.85v-6.13l5.3-3.06v6.13z"/><path id="aR" d="M428.85 220.34v-6.13l5.3-3.06v6.13z"/><path id="aS" d="M401.72 233.26c0-1.43-.87-2.09-1.94-1.47-1.06.62-1.93 2.28-1.93 3.7 0 1.43.87 2.09 1.93 1.47 1.07-.62 1.94-2.27 1.94-3.7"/><clipPath id="Q"><use xlink:href="#a"/></clipPath></defs><g clip-path="url(#clip-7B69D6D5-4574-4DD7-964A-CA68FFF6B83F)" opacity=".35" transform="translate(-361 -73)"><use fill="#fff" fill-opacity="0" stroke="#d7d7d7" stroke-linecap="round" stroke-miterlimit="50" stroke-width=".75" xlink:href="#b" opacity=".35"/><use fill="#fff" fill-opacity="0" stroke="#d7d7d7" stroke-dasharray="5.56 5.56" stroke-linecap="round" stroke-miterlimit="50" stroke-width=".75" xlink:href="#c" opacity=".35"/><use fill="#fff" fill-opacity="0" stroke="#d7d7d7" stroke-linecap="round" stroke-miterlimit="50" stroke-width=".75" xlink:href="#d" opacity=".35"/><use fill="#fff" fill-opacity="0" stroke="#d7d7d7" stroke-dasharray="6.06 6.06" stroke-linecap="round" stroke-miterlimit="50" stroke-width=".75" xlink:href="#e" opacity=".35"/><use fill="#fff" fill-opacity="0" stroke="#d7d7d7" stroke-linecap="round" stroke-miterlimit="50" stroke-width=".75" xlink:href="#f" opacity=".35"/><use fill="#a2dee8" xlink:href="#g" opacity=".35"/><use fill="#ccf8ff" xlink:href="#h" opacity=".35"/><use fill="#a2dee8" xlink:href="#i" opacity=".35"/><use fill="#ccf8ff" xlink:href="#j" opacity=".35"/><g opacity=".35"><use fill="#69f0ff" xlink:href="#k" opacity=".35"/><use fill="#69f0ff" xlink:href="#l" opacity=".35"/><use fill="#69f0ff" xlink:href="#m" opacity=".35"/><use fill="#69f0ff" xlink:href="#n" opacity=".35"/><use fill="#69f0ff" xlink:href="#o" opacity=".35"/><use fill="#69f0ff" xlink:href="#p" opacity=".35"/><use fill="#69f0ff" xlink:href="#q" opacity=".35"/><use fill="#69f0ff" xlink:href="#r" opacity=".35"/><use fill="#69f0ff" xlink:href="#s" opacity=".35"/><use fill="#69f0ff" xlink:href="#t" opacity=".35"/><use fill="#8bc53e" xlink:href="#u" opacity=".35"/><use fill="#69f0ff" xlink:href="#v" opacity=".35"/><use fill="#69f0ff" xlink:href="#w" opacity=".35"/><use fill="#69f0ff" xlink:href="#x" opacity=".35"/><use fill="#69f0ff" xlink:href="#y" opacity=".35"/><use fill="#69f0ff" xlink:href="#z" opacity=".35"/><use fill="#00394b" xlink:href="#A" opacity=".35"/><use fill="#69f0ff" xlink:href="#B" opacity=".35"/><use fill="#69f0ff" xlink:href="#C" opacity=".35"/><use fill="#69f0ff" xlink:href="#D" opacity=".35"/><use fill="#69f0ff" xlink:href="#E" opacity=".35"/><use fill="#69f0ff" xlink:href="#F" opacity=".35"/><use fill="#8bc53e" xlink:href="#G" opacity=".35"/><use fill="#69f0ff" xlink:href="#H" opacity=".35"/><use fill="#69f0ff" xlink:href="#I" opacity=".35"/><use fill="#69f0ff" xlink:href="#J" opacity=".35"/><use fill="#69f0ff" xlink:href="#K" opacity=".35"/><use fill="#69f0ff" xlink:href="#L" opacity=".35"/><use fill="#00394b" xlink:href="#M" opacity=".35"/><use fill="#58c2d2" xlink:href="#N" opacity=".35"/><use fill="#afefff" xlink:href="#O" opacity=".35"/><use fill="#58c2d2" xlink:href="#P" opacity=".35"/><g clip-path="url(#Q)" opacity=".35"><use fill="#afefff" xlink:href="#R"/></g><use fill="#007aa2" xlink:href="#S" opacity=".35"/><use fill="#007aa2" xlink:href="#T" opacity=".35"/><use fill="#007aa2" xlink:href="#U" opacity=".35"/><use fill="#007aa2" xlink:href="#V" opacity=".35"/><use fill="#007aa2" xlink:href="#W" opacity=".35"/><use fill="#007aa2" xlink:href="#X" opacity=".35"/><use fill="#007aa2" xlink:href="#Y" opacity=".35"/><use fill="#007aa2" xlink:href="#Z" opacity=".35"/><use fill="#007aa2" xlink:href="#aa" opacity=".35"/><use fill="#007aa2" xlink:href="#ab" opacity=".35"/><use fill="#8bc53e" xlink:href="#ac" opacity=".35"/><use fill="#007aa2" xlink:href="#ad" opacity=".35"/><use fill="#007aa2" xlink:href="#ae" opacity=".35"/><use fill="#007aa2" xlink:href="#af" opacity=".35"/><use fill="#007aa2" xlink:href="#ag" opacity=".35"/><use fill="#007aa2" xlink:href="#ah" opacity=".35"/><use fill="#faaf3a" xlink:href="#ai" opacity=".35"/><use fill="#007aa2" xlink:href="#aj" opacity=".35"/><use fill="#007aa2" xlink:href="#ak" opacity=".35"/><use fill="#007aa2" xlink:href="#al" opacity=".35"/><use fill="#007aa2" xlink:href="#am" opacity=".35"/><use fill="#007aa2" xlink:href="#an" opacity=".35"/><use fill="#8bc53e" xlink:href="#ao" opacity=".35"/><use fill="#007aa2" xlink:href="#ap" opacity=".35"/><use fill="#007aa2" xlink:href="#aq" opacity=".35"/><use fill="#007aa2" xlink:href="#ar" opacity=".35"/><use fill="#007aa2" xlink:href="#as" opacity=".35"/><use fill="#007aa2" xlink:href="#at" opacity=".35"/><use fill="#faaf3a" xlink:href="#au" opacity=".35"/><use fill="#007aa2" xlink:href="#av" opacity=".35"/><use fill="#007aa2" xlink:href="#aw" opacity=".35"/><use fill="#007aa2" xlink:href="#ax" opacity=".35"/><use fill="#007aa2" xlink:href="#ay" opacity=".35"/><use fill="#007aa2" xlink:href="#az" opacity=".35"/><use fill="#8bc53e" xlink:href="#aA" opacity=".35"/><use fill="#007aa2" xlink:href="#aB" opacity=".35"/><use fill="#007aa2" xlink:href="#aC" opacity=".35"/><use fill="#007aa2" xlink:href="#aD" opacity=".35"/><use fill="#007aa2" xlink:href="#aE" opacity=".35"/><use fill="#007aa2" xlink:href="#aF" opacity=".35"/><use fill="#faaf3a" xlink:href="#aG" opacity=".35"/><use fill="#007aa2" xlink:href="#aH" opacity=".35"/><use fill="#007aa2" xlink:href="#aI" opacity=".35"/><use fill="#007aa2" xlink:href="#aJ" opacity=".35"/><use fill="#007aa2" xlink:href="#aK" opacity=".35"/><use fill="#007aa2" xlink:href="#aL" opacity=".35"/><use fill="#8bc53e" xlink:href="#aM" opacity=".35"/><use fill="#007aa2" xlink:href="#aN" opacity=".35"/><use fill="#007aa2" xlink:href="#aO" opacity=".35"/><use fill="#007aa2" xlink:href="#aP" opacity=".35"/><use fill="#007aa2" xlink:href="#aQ" opacity=".35"/><use fill="#007aa2" xlink:href="#aR" opacity=".35"/><use fill="#faaf3a" xlink:href="#aS" opacity=".35"/></g></g></svg>