<svg width="80" height="80" viewBox="0 0 80 80" xmlns="http://www.w3.org/2000/svg"><title>rating</title><path d="M58.73 39.84a1.563 1.563 0 1 0 .002 3.126 1.563 1.563 0 0 0-.001-3.125zM30.608 68.745a1.563 1.563 0 1 0 0 3.125 1.563 1.563 0 0 0 0-3.125zM22.725 8.421c-.18-.578-.677-1-1.277-1.083l-5.983-.83L12.907.913a1.562 1.562 0 0 0-2.842 0L7.508 6.506l-6.134.831a1.562 1.562 0 0 0-.827 2.717l4.544 4.03-.978 6.114a1.562 1.562 0 0 0 2.27 1.63l5.103-2.683 5.104 2.683a1.561 1.561 0 0 0 2.27-1.63l-.98-6.13 4.408-4.03a1.563 1.563 0 0 0 .437-1.617zm-7.575 3.91a1.56 1.56 0 0 0-.488 1.399l.62 3.88-3.069-1.613a1.561 1.561 0 0 0-1.454 0L7.69 17.61l.621-3.88a1.563 1.563 0 0 0-.506-1.416L5.169 9.976l3.611-.49a1.562 1.562 0 0 0 1.211-.898l1.495-3.268 1.494 3.268a1.56 1.56 0 0 0 1.207.898l3.538.49-2.575 2.354zM51.32 8.43a1.563 1.563 0 0 0-1.285-1.093l-6.136-.831L41.342.913a1.563 1.563 0 0 0-2.842 0l-2.557 5.593-6.134.831a1.562 1.562 0 0 0-.827 2.717l4.544 4.03-.978 6.115a1.562 1.562 0 0 0 2.27 1.63l5.103-2.684 5.104 2.683a1.561 1.561 0 0 0 2.27-1.63l-.977-6.114 4.544-4.03c.457-.405.636-1.04.458-1.624zm-7.717 3.884c-.4.355-.59.889-.506 1.416l.62 3.88-3.069-1.613a1.561 1.561 0 0 0-1.454 0l-3.068 1.613.621-3.88a1.563 1.563 0 0 0-.506-1.416l-2.637-2.338 3.612-.49a1.562 1.562 0 0 0 1.21-.898l1.495-3.269 1.494 3.269c.223.487.68.827 1.211.898l3.614.49-2.637 2.338zM22.725 37.51c-.18-.579-.677-1-1.277-1.084l-5.98-.829-2.56-5.622a1.562 1.562 0 0 0-2.844 0l-2.558 5.62-6.132.83a1.562 1.562 0 0 0-.827 2.718l4.544 4.029-.979 6.115a1.562 1.562 0 0 0 2.27 1.63l5.104-2.684 5.104 2.684a1.561 1.561 0 0 0 2.27-1.63l-.98-6.13 4.408-4.03a1.563 1.563 0 0 0 .437-1.617zm-7.575 3.909a1.56 1.56 0 0 0-.488 1.4l.62 3.88-3.069-1.614a1.561 1.561 0 0 0-1.454 0L7.69 46.698l.621-3.88a1.563 1.563 0 0 0-.506-1.415l-2.637-2.339 3.611-.49c.533-.071.99-.411 1.213-.9l1.493-3.28 1.493 3.28c.222.487.678.827 1.208.9l3.538.49-2.575 2.355zm36.17-3.9a1.562 1.562 0 0 0-1.285-1.094l-6.134-.83-2.558-5.62a1.563 1.563 0 0 0-2.844 0l-2.558 5.62-6.132.83a1.562 1.562 0 0 0-.827 2.718l4.544 4.029-.978 6.115a1.562 1.562 0 0 0 2.27 1.63l5.103-2.684 5.104 2.684a1.561 1.561 0 0 0 2.27-1.63l-.978-6.115 4.544-4.03a1.56 1.56 0 0 0 .459-1.623zm-7.717 3.884c-.4.354-.59.888-.506 1.415l.62 3.88-3.069-1.613a1.561 1.561 0 0 0-1.454 0l-3.068 1.613.621-3.88a1.563 1.563 0 0 0-.506-1.415l-2.637-2.339 3.612-.49c.532-.071.99-.411 1.212-.9l1.493-3.28 1.494 3.28c.222.489.68.829 1.212.9l3.613.49-2.637 2.339zm-20.878 25.01c-.18-.578-.677-1-1.277-1.083l-5.992-.83-2.555-5.452a1.562 1.562 0 0 0-2.83 0l-2.554 5.449-6.143.832a1.562 1.562 0 0 0-.827 2.718l4.544 4.029-.979 6.115a1.563 1.563 0 0 0 2.353 1.583l5.02-3.044 5.022 3.044a1.561 1.561 0 0 0 2.353-1.583l-.98-6.13 4.408-4.03a1.563 1.563 0 0 0 .437-1.618zm-7.575 3.91a1.56 1.56 0 0 0-.488 1.399l.58 3.63-2.946-1.785a1.56 1.56 0 0 0-1.62 0l-2.945 1.785.58-3.63a1.563 1.563 0 0 0-.505-1.415l-2.637-2.339 3.611-.49a1.56 1.56 0 0 0 1.205-.884l1.5-3.202 1.502 3.202c.224.479.676.811 1.2.884l3.538.49-2.575 2.355zM79.911 8.43a1.562 1.562 0 0 0-1.285-1.093l-6.135-.831L69.934.913a1.563 1.563 0 0 0-2.842 0l-2.557 5.593-6.134.831a1.563 1.563 0 0 0-.827 2.717l4.544 4.03-.979 6.115a1.562 1.562 0 0 0 2.27 1.63l5.104-2.684 5.103 2.683a1.561 1.561 0 0 0 2.27-1.63l-.977-6.114 4.544-4.03c.457-.405.636-1.04.458-1.624zm-7.717 3.884c-.4.355-.59.889-.506 1.416l.62 3.88-3.068-1.613a1.561 1.561 0 0 0-1.454 0l-3.068 1.613.62-3.88a1.563 1.563 0 0 0-.505-1.416l-2.637-2.338 3.611-.49a1.562 1.562 0 0 0 1.211-.898l1.495-3.269 1.494 3.269c.223.487.68.827 1.211.898l3.613.49-2.637 2.338zm6.223 27.526H65.449a1.563 1.563 0 0 0 0 3.125h12.968a1.563 1.563 0 0 0 0-3.124zm0 28.905h-41.56a1.562 1.562 0 0 0 0 3.124h41.56a1.563 1.563 0 0 0 0-3.124z" fill="#45ADAA"/></svg>