<svg width="80" height="22" viewBox="0 0 80 22" xmlns="http://www.w3.org/2000/svg"><title>rating</title><path d="M30.608 10.745a1.563 1.563 0 1 0 0 3.125 1.563 1.563 0 0 0 0-3.125zm-7.883-2.332c-.18-.578-.677-1-1.277-1.083l-5.992-.83L12.9 1.048a1.562 1.562 0 0 0-2.83 0L7.517 6.497l-6.143.832a1.562 1.562 0 0 0-.827 2.718l4.544 4.029-.979 6.115a1.563 1.563 0 0 0 2.353 1.583l5.02-3.044 5.022 3.044a1.561 1.561 0 0 0 2.353-1.583l-.98-6.13 4.408-4.03a1.563 1.563 0 0 0 .437-1.618zm-7.575 3.91a1.56 1.56 0 0 0-.488 1.399l.58 3.63-2.946-1.785a1.56 1.56 0 0 0-1.62 0l-2.945 1.785.58-3.63a1.563 1.563 0 0 0-.505-1.415L5.169 9.968l3.611-.49a1.56 1.56 0 0 0 1.205-.884l1.5-3.202 1.502 3.202c.224.479.676.811 1.2.884l3.538.49-2.575 2.354zm63.267-1.578h-41.56a1.562 1.562 0 0 0 0 3.124h41.56a1.563 1.563 0 0 0 0-3.124z" fill="#45ADAA"/></svg>