<svg width="50" height="50" viewBox="0 0 50 50" xmlns="http://www.w3.org/2000/svg"><title>settings (2)</title><g fill="#3DBDB6" opacity=".7"><path d="M47.882 18.59h-2.963a15.656 15.656 0 0 0-1.273-3.076l2.118-2.118c.845-.845.845-2.118 0-2.963l-6.14-6.14a2.084 2.084 0 0 0-2.964 0L34.542 6.41a15.656 15.656 0 0 0-3.076-1.273V2.164A2.13 2.13 0 0 0 29.348.046h-8.686a2.13 2.13 0 0 0-2.118 2.118v3.075c-1.06.316-2.017.744-3.076 1.161L13.35 4.282c-.845-.845-2.118-.845-2.963 0l-6.15 6.15c-.846.846-.846 2.119 0 2.964l2.117 2.118c-.53.957-.957 2.017-1.273 3.076H2.118A2.13 2.13 0 0 0 0 20.708v8.686a2.13 2.13 0 0 0 2.118 2.118h3.075c.316 1.06.744 2.017 1.161 2.964l-2.118 2.118a2.085 2.085 0 0 0-.631 1.486c0 .53.214 1.06.631 1.487l6.14 6.14c.846.846 2.119.846 2.964 0l2.118-2.117c.957.53 2.017.957 3.076 1.273v2.963a2.13 2.13 0 0 0 2.118 2.118h8.686c1.161 0 2.118-.845 2.118-2.016v-2.964a15.656 15.656 0 0 0 3.076-1.273l2.118 2.119c.845.845 2.118.845 2.963 0l6.14-6.141c.846-.845.846-2.118 0-2.963l-2.118-2.118c.53-.958.958-2.017 1.273-3.076h2.964a2.13 2.13 0 0 0 2.118-2.118v-8.686a2.101 2.101 0 0 0-2.108-2.118zm-2.118 8.788h-2.546c-.957 0-1.803.631-2.016 1.588-.428 1.69-1.06 3.391-2.017 4.878-.53.845-.315 1.904.316 2.546l1.802 1.802-3.167 3.167-1.802-1.802c-.631-.743-1.69-.845-2.546-.316-1.487.958-3.177 1.589-4.878 2.017-.957.213-1.588 1.059-1.588 2.016v2.546h-4.654v-2.648c0-.957-.631-1.802-1.589-2.016-1.69-.428-3.39-1.06-4.877-2.016-.846-.53-1.905-.316-2.546.315l-1.792 1.803-3.178-3.178 1.803-1.802c.743-.631.845-1.69.315-2.546-.957-1.487-1.588-3.177-2.016-4.878-.214-.957-1.059-1.588-2.016-1.588H4.226v-4.552h2.648c.957 0 1.802-.632 2.016-1.589.428-1.69 1.06-3.39 2.016-4.878.53-.845.316-1.904-.315-2.545l-1.803-1.803 3.177-3.167 1.803 1.803c.631.743 1.69.845 2.546.315 1.486-.957 3.177-1.588 4.877-2.016.958-.214 1.589-1.06 1.589-2.016V4.272h4.552V6.92c0 .957.631 1.802 1.589 2.016 1.69.428 3.39 1.059 4.877 2.016.846.53 1.905.316 2.546-.316l1.792-1.802 3.178 3.177-1.803 1.803c-.743.631-.845 1.69-.315 2.545.957 1.487 1.588 3.178 2.016 4.878.214.958 1.059 1.589 2.016 1.589h2.546v4.552h-.01z"/><path d="M25 13.926c-6.14 0-11.12 4.98-11.12 11.12 0 6.14 4.98 11.12 11.12 11.12 6.14 0 11.12-4.98 11.12-11.12 0-6.14-4.98-11.12-11.12-11.12zm0 18.116c-3.92 0-6.996-3.177-6.996-6.996 0-3.92 3.177-6.996 6.996-6.996 3.819 0 6.996 3.177 6.996 6.996 0 3.92-3.075 6.996-6.996 6.996z"/></g></svg>