<svg xmlns="http://www.w3.org/2000/svg" xmlns:xlink="http://www.w3.org/1999/xlink" width="50" height="60" viewBox="0 0 50 60"><defs><path id="a" d="M394.82 255.8c0 .23-.02.45-.03.67l-.07 1.5h-49.47l-.06-1.52a25.01 25.01 0 0 1 14.1-23.1l.2-.1a26 26 0 0 1 2.26-.93l.25-.09a23.27 23.27 0 0 1 4.15-1.03l.1-.01c.36-.06.71-.11 1.07-.15l.39-.03.15-.02.34-.03c1.14-.08 2.33-.08 3.49 0l.94.07.8.11.1.01h.01l.1.02c.31.05.63.1.95.17l.12.02a20.56 20.56 0 0 1 4.38 1.28c.37.15.74.3 1.1.47l.16.07a24.98 24.98 0 0 1 14.47 22.62zm-47.23-.27zm0 0h44.8a22.54 22.54 0 0 0-13.08-20.15l-.07-.03a20.52 20.52 0 0 0-3.08-1.14 21.81 21.81 0 0 0-1.9-.46l-.13-.02-.87-.15-.28-.04a23.8 23.8 0 0 0-.61-.08l-.77-.07c-1.2-.08-2.2-.07-3.24 0l-.79.07-1.04.14-.1.02-.57.1-.7.15a21.7 21.7 0 0 0-2.4.68l-.2.07c-.63.22-1.25.47-1.85.75l-.03.03-.25.1a22.55 22.55 0 0 0-12.84 20.03zm6.95-42c0-.27.02-.52.04-.78l.01-.2A15.5 15.5 0 0 1 370.02 198c8.54 0 15.48 6.96 15.48 15.53v.12c0 4.52-2.06 8.87-5.63 11.83l-.62.48a8.75 8.75 0 0 1-1.65 1.1l-.2.12c-.33.18-.66.33-.99.47l-.1.06a6.07 6.07 0 0 1-1 .4l-.33.11a7.36 7.36 0 0 1-.99.3l-.41.1a7.54 7.54 0 0 1-1.1.22l-.38.06c-.17.03-.34.06-.51.07-.51.05-1.04.08-1.57.08h-.12a15.33 15.33 0 0 1-4.95-.87l-.4-.14-.56-.21a15.5 15.5 0 0 1-9.45-14.3zm2.43 0c0 5.27 3.13 10 7.97 12.06l.41.16.46.16c.1.04.21.09.32.12 1.25.4 2.55.59 3.88.59h.11a12.68 12.68 0 0 0 1.57-.12l.46-.07.5-.07.3-.08.48-.13.45-.11.23-.09.4-.14.57-.21.33-.16c.28-.13.56-.25.82-.4l.17-.1a13.1 13.1 0 0 0 1.33-.88l.58-.44a13.1 13.1 0 0 0 4.76-10.08v-.13c0-7.1-5.85-12.98-13.05-12.98a13.07 13.07 0 0 0-13 12.27l-.02.22-.03.6z"/></defs><use fill="#fff" xlink:href="#a" transform="translate(-345 -198)"/></svg>