<svg xmlns="http://www.w3.org/2000/svg" xmlns:xlink="http://www.w3.org/1999/xlink" width="24" height="22" viewBox="0 0 24 22"><defs><path id="f4x7a" d="M185.88 801.87l-4.26-6.74c-.11-.18-.4-.17-.51.01a8.83 8.83 0 0 1-5.88 4.1c-.2.04-.29.24-.2.4l3.78 5.96c.38.6 1.33.5 1.58-.13l1.17-2.98 3.41.57c.73.12 1.28-.6.91-1.19z"/><path id="f4x7b" d="M172.77 799.24a8.84 8.84 0 0 1-5.88-4.1c-.1-.18-.4-.19-.51 0l-4.26 6.73c-.37.59.18 1.3.91 1.19l3.4-.57 1.18 2.98c.25.64 1.2.72 1.58.13l3.77-5.97c.1-.15 0-.35-.19-.39z"/><path id="f4x7c" d="M167.5 793.58a7 7 0 1 1 13 0c-2.32 5.88-10.67 5.9-13 0zm9.91-4.1l-1.87-.27-.83-1.7a.79.79 0 0 0-1.42 0l-.83 1.7-1.87.27c-.65.1-.9.9-.44 1.35l1.36 1.32-.32 1.86a.79.79 0 0 0 1.14.83l1.67-.88 1.67.88a.79.79 0 0 0 1.14-.83l-.32-1.86 1.36-1.32a.79.79 0 0 0-.44-1.35z"/></defs><g><g transform="translate(-162 -784)"><use fill="#93c2f1" xlink:href="#f4x7a"/></g><g transform="translate(-162 -784)"><use fill="#93c2f1" xlink:href="#f4x7b"/></g><g transform="translate(-162 -784)"><use fill="#93c2f1" xlink:href="#f4x7c"/></g></g></svg>