<svg xmlns="http://www.w3.org/2000/svg" xmlns:xlink="http://www.w3.org/1999/xlink" width="18" height="18" viewBox="0 0 18 18"><defs><path id="s1npa" d="M731.05 794.63h1.15v-1.13h-1.15zm0 1.12c-.63 0-1.15-.5-1.15-1.13v-1.12c0-.62.52-1.13 1.15-1.13h1.15c.63 0 1.15.5 1.15 1.13v1.13c0 .62-.52 1.12-1.15 1.12zm-4.6-1.13h1.15v-1.12h-1.15zm0 1.13c-.63 0-1.15-.5-1.15-1.13v-1.12c0-.62.52-1.13 1.15-1.13h1.15c.63 0 1.15.5 1.15 1.13v1.13c0 .62-.52 1.12-1.15 1.12zm4.6-5.63h1.15V789h-1.15zm0 1.13c-.63 0-1.15-.5-1.15-1.13V789c0-.62.52-1.13 1.15-1.13h1.15c.63 0 1.15.5 1.15 1.13v1.13c0 .62-.52 1.12-1.15 1.12zm-4.6-1.13h1.15V789h-1.15zm0 1.13c-.63 0-1.15-.5-1.15-1.13V789c0-.62.52-1.13 1.15-1.13h1.15c.63 0 1.15.5 1.15 1.13v1.13c0 .62-.52 1.12-1.15 1.12zm12.65-6.75v-1.13c0-.62-.52-1.12-1.15-1.12h-2.3v.56c0 .31-.26.57-.57.57a.57.57 0 0 1-.58-.57v-.56h-5.75v.56c0 .31-.26.57-.57.57a.57.57 0 0 1-.58-.57v-.56h-2.3c-.63 0-1.15.5-1.15 1.13v1.12zm0 11.25v-10.13h-14.95v10.13c0 .62.52 1.13 1.15 1.13h12.65c.63 0 1.15-.5 1.15-1.13zm-1.15-14.63c1.27 0 2.3 1.01 2.3 2.25v12.38a2.28 2.28 0 0 1-2.3 2.25H725.3c-1.27 0-2.3-1-2.3-2.25v-12.38a2.28 2.28 0 0 1 2.3-2.25h2.3v-.56c0-.3.26-.56.57-.56.32 0 .58.25.58.56v.57h5.75v-.57c0-.3.26-.56.58-.56.31 0 .57.25.57.56v.57zm-2.3 9h1.15V789h-1.15zm0 1.13c-.63 0-1.15-.5-1.15-1.13V789c0-.62.52-1.13 1.15-1.13h1.15c.63 0 1.15.5 1.15 1.13v1.13c0 .62-.52 1.12-1.15 1.12zm0 3.38h1.15v-1.13h-1.15zm0 1.12c-.63 0-1.15-.5-1.15-1.13v-1.12c0-.62.52-1.13 1.15-1.13h1.15c.63 0 1.15.5 1.15 1.13v1.13c0 .62-.52 1.12-1.15 1.12z"/></defs><g><g transform="translate(-723 -780)"><use fill="#1d8dc3" xlink:href="#s1npa"/></g></g></svg>