<svg xmlns="http://www.w3.org/2000/svg" xmlns:xlink="http://www.w3.org/1999/xlink" width="24" height="24" viewBox="0 0 24 24"><defs><path id="fzfoa" d="M1194 128a12 12 0 1 1-24 0 12 12 0 0 1 24 0zm-2.25 0a9.75 9.75 0 1 0-19.5 0 9.75 9.75 0 0 0 19.5 0zm-5.5 2.12c.3.3.3.77 0 1.07l-1.05 1.06c-.3.29-.77.29-1.07 0l-2.13-2.14-2.11 2.12c-.3.3-.77.3-1.06 0l-1.07-1.06a.75.75 0 0 1 0-1.06l2.12-2.12-2.12-2.12a.75.75 0 0 1 0-1.06l1.06-1.06c.3-.3.77-.3 1.06 0l2.12 2.12 2.12-2.12c.3-.3.77-.3 1.07 0l1.06 1.06c.29.3.29.77 0 1.06l-2.13 2.12z"/></defs><g><g transform="translate(-1170 -116)"><use fill="#fff" fill-opacity=".8" xlink:href="#fzfoa"/></g></g></svg>