<svg xmlns="http://www.w3.org/2000/svg" xmlns:xlink="http://www.w3.org/1999/xlink" width="26" height="26" viewBox="0 0 26 26"><defs><path id="yvhba" d="M588.91 660.5a2.59 2.59 0 0 0 0-5.17 2.58 2.58 0 0 0 0 5.17z"/><path id="yvhbb" d="M594.55 654.75V652.26H592.06v2.5z"/><path id="yvhbc" d="M601.82 657.91c0 7.12-5.8 12.9-12.91 12.9-7.12 0-12.91-5.78-12.91-12.9S581.8 645 588.91 645c7.12 0 12.9 5.8 12.9 12.91zm-5.57-4.5a2.84 2.84 0 0 0-2.84-2.84h-9a2.84 2.84 0 0 0-2.84 2.84v9a2.84 2.84 0 0 0 2.84 2.84h9a2.84 2.84 0 0 0 2.84-2.84z"/><path id="yvhbd" d="M592.93 657.9a4.02 4.02 0 1 1-7.74-1.5H583v6.01c0 .78.63 1.4 1.4 1.4h9.02c.77 0 1.4-.62 1.4-1.4v-6.01h-2.2c.2.46.3.97.3 1.5z"/></defs><g><g transform="translate(-576 -645)"><use fill="#d6d6d6" xlink:href="#yvhba"/></g><g transform="translate(-576 -645)"><use fill="#d6d6d6" xlink:href="#yvhbb"/></g><g transform="translate(-576 -645)"><use fill="#d6d6d6" xlink:href="#yvhbc"/></g><g transform="translate(-576 -645)"><use fill="#d6d6d6" xlink:href="#yvhbd"/></g></g></svg>