<svg xmlns="http://www.w3.org/2000/svg" xmlns:xlink="http://www.w3.org/1999/xlink" width="25" height="25" viewBox="0 0 25 25"><defs><path id="p8lca" d="M216.97 789.8l5.7 2.35a.84.84 0 0 0 1.04-.34l2.56-4.32 4.68-2.3.14 2.12c.01.07.05.12.11.14.06.02.13 0 .17-.05l3.92-5.12a.17.17 0 0 0 .02-.17.17.17 0 0 0-.16-.1l-6.44-.01a.15.15 0 0 0-.1.27l1.6 1.4-4.9 2.42a.84.84 0 0 0-.36.33l-2.32 3.9-5.02-2.07a.84.84 0 1 0-.64 1.56z"/><path id="p8lcb" d="M239.7 804.48h-22.4a1.26 1.26 0 1 0 0 2.52h22.4a1.26 1.26 0 0 0 0-2.52z"/><path id="p8lcc" d="M218.54 794.21a.5.5 0 0 0-.51.5v7.57c0 .28.23.51.5.51h2.98c.28 0 .51-.23.51-.5v-7.57c0-.28-.23-.51-.5-.51z"/><path id="p8lcd" d="M234.98 786.14v16.14c0 .28.23.51.5.51h2.98c.28 0 .51-.23.51-.5v-16.15c0-.28-.23-.51-.5-.51h-2.98c-.28 0-.51.23-.51.5z"/><path id="p8lce" d="M229.84 790.13a.51.51 0 0 0-.51.5v11.65c0 .28.23.51.51.51h2.97a.5.5 0 0 0 .51-.5v-11.65c0-.28-.23-.51-.5-.51z"/><path id="p8lcf" d="M224.19 796.46a.51.51 0 0 0-.51.5v5.32c0 .28.23.51.51.51h2.97c.28 0 .51-.23.51-.5v-5.32c0-.28-.23-.51-.5-.51z"/></defs><g><g transform="translate(-216 -782)"><use fill="#2fbefe" xlink:href="#p8lca"/></g><g transform="translate(-216 -782)"><use fill="#2fbefe" xlink:href="#p8lcb"/></g><g transform="translate(-216 -782)"><use fill="#2fbefe" xlink:href="#p8lcc"/></g><g transform="translate(-216 -782)"><use fill="#2fbefe" xlink:href="#p8lcd"/></g><g transform="translate(-216 -782)"><use fill="#2fbefe" xlink:href="#p8lce"/></g><g transform="translate(-216 -782)"><use fill="#2fbefe" xlink:href="#p8lcf"/></g></g></svg>