<svg xmlns="http://www.w3.org/2000/svg" xmlns:xlink="http://www.w3.org/1999/xlink" width="26" height="26" viewBox="0 0 26 26"><defs><path id="kfi9a" d="M615 657a13 13 0 1 1 26 0 13 13 0 0 1-26 0zm19.4-6.16l-15.12 5.84a.43.43 0 0 0 0 .81l3.69 1.38 1.43 4.58c.09.3.45.4.69.21l2.05-1.67a.61.61 0 0 1 .75-.02l3.7 2.69c.26.18.62.04.69-.27l2.71-13.06a.43.43 0 0 0-.58-.49z"/><path id="kfi9b" d="M632.13 653l-7.44 4.59a.75.75 0 0 0-.33.84l.8 2.83c.06.2.35.18.38-.03l.2-1.55c.05-.3.19-.56.4-.76l6.15-5.71c.11-.11-.03-.3-.16-.2z"/></defs><g><g transform="translate(-615 -644)"><use fill="#d6d6d6" xlink:href="#kfi9a"/></g><g transform="translate(-615 -644)"><use fill="#d6d6d6" xlink:href="#kfi9b"/></g></g></svg>