<svg xmlns="http://www.w3.org/2000/svg" xmlns:xlink="http://www.w3.org/1999/xlink" width="26" height="26" viewBox="0 0 26 26"><defs><path id="vjf1a" d="M556.82 657.91c0 7.12-5.8 12.9-12.91 12.9-7.12 0-12.91-5.78-12.91-12.9S536.8 645 543.91 645c7.12 0 12.9 5.8 12.9 12.91zm-5.67-4.5c-.53.25-1.1.4-1.7.48a2.98 2.98 0 0 0 1.3-1.65c-.57.34-1.2.59-1.89.72a2.97 2.97 0 0 0-5.06 2.71 8.44 8.44 0 0 1-6.12-3.1 2.96 2.96 0 0 0 .92 3.97 2.96 2.96 0 0 1-1.35-.38v.04a2.97 2.97 0 0 0 2.38 2.92 2.97 2.97 0 0 1-1.34.05 2.97 2.97 0 0 0 2.78 2.06 5.96 5.96 0 0 1-4.4 1.23 8.4 8.4 0 0 0 4.55 1.33c5.47 0 8.46-4.52 8.46-8.45l-.01-.39a5.98 5.98 0 0 0 1.48-1.53z"/></defs><g><g transform="translate(-531 -645)"><use fill="#d6d6d6" xlink:href="#vjf1a"/></g></g></svg>