<?xml version="1.0" encoding="UTF-8"?>
<svg width="50px" height="50px" viewBox="0 0 50 50" version="1.1" xmlns="http://www.w3.org/2000/svg" xmlns:xlink="http://www.w3.org/1999/xlink">
    <!-- Generator: Sketch 49.1 (51147) - http://www.bohemiancoding.com/sketch -->
    <title>chip</title>
    <desc>Created with Sketch.</desc>
    <defs></defs>
    <g id="Page-1" stroke="none" stroke-width="1" fill="none" fill-rule="evenodd" opacity="0.7">
        <g id="CM_main_1440" transform="translate(-207.000000, -1032.000000)" fill="#3DBDB6" fill-rule="nonzero">
            <g id="Slide-2" transform="translate(149.000000, 966.000000)">
                <g id="teps" transform="translate(0.000000, 2.000000)">
                    <g id="Setup">
                        <g id="chip" transform="translate(58.000000, 64.000000)">
                            <path d="M47.7749491,27.0773931 C48.9460285,27.0773931 49.9032587,26.1201629 49.9032587,24.9490835 C49.9032587,23.7780041 48.9460285,22.8207739 47.7749491,22.8207739 L41.7260692,22.8207739 L41.7260692,19.8574338 L47.7749491,19.8574338 C48.9460285,19.8574338 49.9032587,18.9002037 49.9032587,17.7291242 C49.9032587,16.5580448 48.9460285,15.6008147 47.7749491,15.6008147 L41.7260692,15.6008147 L41.7260692,10.3971487 C41.7260692,9.22606925 40.7688391,8.2688391 39.5977597,8.2688391 L34.2922607,8.2688391 L34.2922607,2.12830957 C34.2922607,0.957230143 33.3350305,0 32.1639511,0 C30.9928717,0 30.0356415,0.957230143 30.0356415,2.12830957 L30.0356415,8.2892057 L27.0621181,8.2892057 L27.0621181,2.12830957 C27.0621181,0.957230143 26.104888,0 24.9338086,0 C23.7627291,0 22.805499,0.957230143 22.805499,2.12830957 L22.805499,8.2892057 L19.8625255,8.2892057 L19.8625255,2.12830957 C19.8625255,0.957230143 18.9052953,0 17.7342159,0 C16.5631365,0 15.6059063,0.957230143 15.6059063,2.12830957 L15.6059063,8.2892057 L10.6160896,8.2892057 C9.44501018,8.2892057 8.48778004,9.24643585 8.48778004,10.4175153 L8.48778004,15.6211813 L2.13340122,15.6211813 C0.962321792,15.6211813 0.00509164969,16.5784114 0.00509164969,17.7494908 C0.00509164969,18.9205703 0.962321792,19.8778004 2.13340122,19.8778004 L8.50814664,19.8778004 L8.50814664,22.8513238 L2.13340122,22.8513238 C0.962321792,22.8513238 0.00509164969,23.808554 0.00509164969,24.9796334 C0.00509164969,26.1507128 0.962321792,27.107943 2.13340122,27.107943 L8.50814664,27.107943 L8.50814664,29.9389002 L2.13340122,29.9389002 C0.962321792,29.9389002 0.00509164969,30.8961303 0.00509164969,32.0672098 C0.00509164969,33.2382892 0.962321792,34.1955193 2.13340122,34.1955193 L8.50814664,34.1955193 L8.50814664,39.3991853 C8.50814664,40.5702648 9.46537678,41.5274949 10.6364562,41.5274949 L15.6262729,41.5274949 L15.6262729,47.790224 C15.6262729,48.9613035 16.5835031,49.9185336 17.7545825,49.9185336 C18.9256619,49.9185336 19.8828921,48.9613035 19.8828921,47.790224 L19.8828921,41.5274949 L22.8564155,41.5274949 L22.8564155,47.790224 C22.8564155,48.9613035 23.8136456,49.9185336 24.9847251,49.9185336 C26.1558045,49.9185336 27.1130346,48.9613035 27.1130346,47.790224 L27.1130346,41.5274949 L30.0458248,41.5274949 L30.0458248,47.790224 C30.0458248,48.9613035 31.003055,49.9185336 32.1741344,49.9185336 C33.2331976,49.9185336 34.1904277,48.9613035 34.302444,47.790224 L34.302444,41.5274949 L39.607943,41.5274949 C40.7790224,41.5274949 41.7362525,40.6822811 41.7362525,39.3991853 L41.7362525,34.1955193 L47.7851324,34.1955193 C48.9562118,34.1955193 49.913442,33.2382892 49.913442,32.0672098 C49.913442,30.8961303 48.9562118,29.9389002 47.7851324,29.9389002 L41.7362525,29.9389002 L41.7362525,27.0773931 L47.7749491,27.0773931 Z M37.4796334,37.3727088 L12.6323829,37.3727088 L12.6323829,12.5254582 L37.4796334,12.5254582 L37.4796334,37.3727088 Z" id="Shape"></path>
                        </g>
                    </g>
                </g>
            </g>
        </g>
    </g>
</svg>