<?xml version="1.0" encoding="UTF-8"?>
<svg width="66px" height="65px" viewBox="0 0 66 65" version="1.1" xmlns="http://www.w3.org/2000/svg" xmlns:xlink="http://www.w3.org/1999/xlink">
    <!-- Generator: Sketch 49.1 (51147) - http://www.bohemiancoding.com/sketch -->
    <title>circuit</title>
    <desc>Created with Sketch.</desc>
    <defs></defs>
    <g id="Page-1" stroke="none" stroke-width="1" fill="none" fill-rule="evenodd">
        <g id="CM_main_1440" transform="translate(-822.000000, -3393.000000)" fill="#45ADAA" fill-rule="nonzero">
            <g id="benefits" transform="translate(150.000000, 3186.000000)">
                <g id="with-us" transform="translate(390.000000, 167.000000)">
                    <g id="circuit" transform="translate(282.000000, 40.659341)">
                        <path d="M58.9285714,34.9686028 C55.4314554,34.9686028 52.5274554,37.775157 51.9635089,41.44427 L47.1428571,41.44427 C43.2435536,41.44427 40.0714286,44.928179 40.0714286,49.2105377 L40.0714286,63.4615385 L42.4285714,63.4615385 L42.4285714,49.2105377 C42.4285714,46.3567111 44.5435179,44.0345369 47.1428571,44.0345369 L51.9635089,44.0345369 C52.5271607,47.7036499 55.4314554,50.5102041 58.9285714,50.5102041 C62.827875,50.5102041 66,47.0243524 66,42.7394035 C66,38.4544545 62.827875,34.9686028 58.9285714,34.9686028 Z M58.9285714,47.9199372 C56.3292321,47.9199372 54.2142857,45.5958203 54.2142857,42.7394035 C54.2142857,39.8829867 56.3292321,37.5588697 58.9285714,37.5588697 C61.5279107,37.5588697 63.6428571,39.8829867 63.6428571,42.7394035 C63.6428571,45.5958203 61.5279107,47.9199372 58.9285714,47.9199372 Z" id="Shape"></path>
                        <path d="M27.1071429,15.5416013 L22.3928571,15.5416013 C22.3928571,11.2566523 19.2207321,7.77080063 15.3214286,7.77080063 C11.422125,7.77080063 8.25,11.2566523 8.25,15.5416013 C8.25,19.8265502 11.422125,23.3124019 15.3214286,23.3124019 C18.393375,23.3124019 21.0065625,21.1453199 21.9803571,18.1318681 L27.1071429,18.1318681 C29.7064821,18.1318681 31.8214286,20.4592229 31.8214286,23.3201727 L31.8214286,63.4615385 L34.1785714,63.4615385 L34.1785714,23.3201727 C34.1785714,19.0310145 31.0064464,15.5416013 27.1071429,15.5416013 Z M15.3214286,20.722135 C12.7220893,20.722135 10.6071429,18.3980181 10.6071429,15.5416013 C10.6071429,12.6851845 12.7220893,10.3610675 15.3214286,10.3610675 C17.9207679,10.3610675 20.0357143,12.6851845 20.0357143,15.5416013 C20.0357143,18.3980181 17.9207679,20.722135 15.3214286,20.722135 Z" id="Shape"></path>
                        <path d="M18.8571429,34.9686028 L14.0364911,34.9686028 C13.4725446,31.2994898 10.5685446,28.4929356 7.07142857,28.4929356 C3.172125,28.4929356 0,31.9787873 0,36.2637363 C0,40.5486852 3.172125,44.0345369 7.07142857,44.0345369 C10.5685446,44.0345369 13.4725446,41.2279827 14.0364911,37.5588697 L18.8571429,37.5588697 C21.4564821,37.5588697 23.5714286,39.8849294 23.5714286,42.7439364 L23.5714286,63.4615385 L25.9285714,63.4615385 L25.9285714,42.7439364 C25.9285714,38.4570447 22.7564464,34.9686028 18.8571429,34.9686028 Z M7.07142857,41.44427 C4.47208929,41.44427 2.35714286,39.1201531 2.35714286,36.2637363 C2.35714286,33.4073195 4.47208929,31.0832025 7.07142857,31.0832025 C9.67076786,31.0832025 11.7857143,33.4073195 11.7857143,36.2637363 C11.7857143,39.1201531 9.67076786,41.44427 7.07142857,41.44427 Z" id="Shape"></path>
                        <path d="M48.1626161,25.9026688 L51.9635089,25.9026688 C52.5271607,29.5717818 55.4314554,32.3783359 58.9285714,32.3783359 C62.827875,32.3783359 66,28.8924843 66,24.6075353 C66,20.3225863 62.827875,16.8367347 58.9285714,16.8367347 C55.4314554,16.8367347 52.5274554,19.6432889 51.9635089,23.3124019 L48.1626161,23.3124019 C46.30725,23.3124019 44.7977946,21.6530122 44.7977946,19.6128532 L44.7977946,0 L42.4406518,0 L42.4406518,19.6128532 C42.4406518,23.0808968 45.0072857,25.9026688 48.1626161,25.9026688 Z M58.9285714,19.4270016 C61.5279107,19.4270016 63.6428571,21.7511185 63.6428571,24.6075353 C63.6428571,27.4639521 61.5279107,29.7880691 58.9285714,29.7880691 C56.3292321,29.7880691 54.2142857,27.4639521 54.2142857,24.6075353 C54.2142857,21.7511185 56.3292321,19.4270016 58.9285714,19.4270016 Z" id="Shape"></path>
                    </g>
                </g>
            </g>
        </g>
    </g>
</svg>