<?xml version="1.0" encoding="UTF-8"?>
<svg width="60px" height="63px" viewBox="0 0 60 63" version="1.1" xmlns="http://www.w3.org/2000/svg" xmlns:xlink="http://www.w3.org/1999/xlink">
    <!-- Generator: Sketch 49.1 (51147) - http://www.bohemiancoding.com/sketch -->
    <title>clock</title>
    <desc>Created with Sketch.</desc>
    <defs></defs>
    <g id="Page-1" stroke="none" stroke-width="1" fill="none" fill-rule="evenodd">
        <g id="CM_main_1440" transform="translate(-429.000000, -3388.000000)" fill="#45ADAA" fill-rule="nonzero">
            <g id="benefits" transform="translate(150.000000, 3186.000000)">
                <g id="alone" transform="translate(0.000000, 167.000000)">
                    <g id="clock" transform="translate(279.000000, 35.897436)">
                        <path d="M30,0 C13.458,0 0,13.8030769 0,30.7692308 C0,47.7353846 13.458,61.5384615 30,61.5384615 C46.542,61.5384615 60,47.7353846 60,30.7692308 C60,13.8030769 46.542,0 30,0 Z M30,59.4871795 C14.561,59.4871795 2,46.6041026 2,30.7692308 C2,14.934359 14.561,2.05128205 30,2.05128205 C45.439,2.05128205 58,14.934359 58,30.7692308 C58,46.6041026 45.439,59.4871795 30,59.4871795 Z" id="Shape"></path>
                        <path d="M31,26.6882051 L31,16.2861538 C31,15.7189744 30.552,15.2605128 30,15.2605128 C29.448,15.2605128 29,15.7189744 29,16.2861538 L29,26.6882051 C27.601,27.0615385 26.506,28.1846154 26.142,29.6194872 L19,29.6194872 C18.448,29.6194872 18,30.0779487 18,30.6451282 C18,31.2123077 18.448,31.6707692 19,31.6707692 L26.142,31.6707692 C26.589,33.4348718 28.142,34.7476923 30,34.7476923 C32.206,34.7476923 34,32.9076923 34,30.6451282 C34,28.7384615 32.72,27.1466667 31,26.6882051 Z M30,32.6964103 C28.897,32.6964103 28,31.7764103 28,30.6451282 C28,29.5138462 28.897,28.5938462 30,28.5938462 C31.103,28.5938462 32,29.5138462 32,30.6451282 C32,31.7764103 31.103,32.6964103 30,32.6964103 Z" id="Shape"></path>
                        <path d="M30,10.1323077 C30.552,10.1323077 31,9.67384615 31,9.10666667 L31,8.08102564 C31,7.51384615 30.552,7.05538462 30,7.05538462 C29.448,7.05538462 29,7.51384615 29,8.08102564 L29,9.10666667 C29,9.67384615 29.448,10.1323077 30,10.1323077 Z" id="Shape"></path>
                        <path d="M30,51.1579487 C29.448,51.1579487 29,51.6164103 29,52.1835897 L29,53.2092308 C29,53.7764103 29.448,54.2348718 30,54.2348718 C30.552,54.2348718 31,53.7764103 31,53.2092308 L31,52.1835897 C31,51.6164103 30.552,51.1579487 30,51.1579487 Z" id="Shape"></path>
                        <path d="M52,29.6194872 L51,29.6194872 C50.448,29.6194872 50,30.0779487 50,30.6451282 C50,31.2123077 50.448,31.6707692 51,31.6707692 L52,31.6707692 C52.552,31.6707692 53,31.2123077 53,30.6451282 C53,30.0779487 52.552,29.6194872 52,29.6194872 Z" id="Shape"></path>
                        <path d="M9,29.6194872 L8,29.6194872 C7.448,29.6194872 7,30.0779487 7,30.6451282 C7,31.2123077 7.448,31.6707692 8,31.6707692 L9,31.6707692 C9.552,31.6707692 10,31.2123077 10,30.6451282 C10,30.0779487 9.552,29.6194872 9,29.6194872 Z" id="Shape"></path>
                        <path d="M44.849,13.9641026 L44.142,14.6892308 C43.751,15.0902564 43.751,15.7384615 44.142,16.1394872 C44.337,16.3394872 44.593,16.44 44.849,16.44 C45.105,16.44 45.361,16.3394872 45.556,16.1394872 L46.263,15.414359 C46.654,15.0133333 46.654,14.3651282 46.263,13.9641026 C45.872,13.5630769 45.24,13.5641026 44.849,13.9641026 Z" id="Shape"></path>
                        <path d="M14.444,45.1497436 L13.737,45.8748718 C13.346,46.2758974 13.346,46.9241026 13.737,47.3251282 C13.932,47.5251282 14.188,47.625641 14.444,47.625641 C14.7,47.625641 14.956,47.5251282 15.151,47.3251282 L15.858,46.6 C16.249,46.1989744 16.249,45.5507692 15.858,45.1497436 C15.467,44.7487179 14.834,44.7497436 14.444,45.1497436 Z" id="Shape"></path>
                        <path d="M45.556,45.1497436 C45.165,44.7487179 44.533,44.7487179 44.142,45.1497436 C43.751,45.5507692 43.751,46.1989744 44.142,46.6 L44.849,47.3251282 C45.044,47.5251282 45.3,47.625641 45.556,47.625641 C45.812,47.625641 46.068,47.5251282 46.263,47.3251282 C46.654,46.9241026 46.654,46.2758974 46.263,45.8748718 L45.556,45.1497436 Z" id="Shape"></path>
                        <path d="M15.151,13.9641026 C14.76,13.5630769 14.128,13.5630769 13.737,13.9641026 C13.346,14.3651282 13.346,15.0133333 13.737,15.414359 L14.444,16.1394872 C14.639,16.3394872 14.895,16.44 15.151,16.44 C15.407,16.44 15.663,16.3394872 15.858,16.1394872 C16.249,15.7384615 16.249,15.0902564 15.858,14.6892308 L15.151,13.9641026 Z" id="Shape"></path>
                    </g>
                </g>
            </g>
        </g>
    </g>
</svg>