<?xml version="1.0" encoding="UTF-8"?>
<svg width="60px" height="54px" viewBox="0 0 60 54" version="1.1" xmlns="http://www.w3.org/2000/svg" xmlns:xlink="http://www.w3.org/1999/xlink">
    <!-- Generator: Sketch 49.1 (51147) - http://www.bohemiancoding.com/sketch -->
    <title>cloud-computing (1)</title>
    <desc>Created with Sketch.</desc>
    <defs></defs>
    <g id="Page-1" stroke="none" stroke-width="1" fill="none" fill-rule="evenodd">
        <g id="CM_main_1440" transform="translate(-1213.000000, -3398.000000)" fill="#45ADAA" fill-rule="nonzero">
            <g id="benefits" transform="translate(150.000000, 3186.000000)">
                <g id="cloude" transform="translate(778.000000, 167.000000)">
                    <g id="cloud-computing-(1)" transform="translate(285.000000, 44.791667)">
                        <path d="M50.975,17.3895833 C50.448,8.01458333 43.029,0.520833333 34.084,0.520833333 C28.654,0.520833333 23.396,3.29479167 20.138,7.82083333 C20.064,7.78020833 19.985,7.753125 19.91,7.71458333 C19.712,7.61458333 19.511,7.51875 19.305,7.434375 C19.19,7.3875 19.075,7.34479167 18.959,7.30208333 C18.757,7.228125 18.553,7.16354167 18.344,7.10416667 C18.228,7.071875 18.113,7.03854167 17.995,7.01041667 C17.771,6.95729167 17.543,6.91666667 17.312,6.88125 C17.21,6.865625 17.11,6.84479167 17.007,6.83229167 C16.677,6.79479167 16.341,6.77083333 16,6.77083333 C11.038,6.77083333 7,10.9760417 7,16.1458333 C7,16.2802083 7.007,16.4114583 7.016,16.5427083 C2.857,18.9041667 0,23.853125 0,28.80625 C0,36.184375 5.762,42.1875 12.845,42.1875 L18,42.1875 C18.552,42.1875 19,41.721875 19,41.1458333 C19,40.5697917 18.552,40.1041667 18,40.1041667 L12.845,40.1041667 C6.865,40.1041667 2,35.0364583 2,28.80625 C2,24.4791667 4.705,19.9875 8.432,18.1260417 L9,17.84375 L9,17.1875 C9,17.059375 9.008,16.928125 9.015,16.796875 L9.024,16.6145833 L9.012,16.41875 C9.007,16.328125 9,16.2375 9,16.1458333 C9,12.1260417 12.14,8.85416667 16,8.85416667 C16.309,8.85416667 16.614,8.88229167 16.917,8.92395833 C16.995,8.934375 17.072,8.94791667 17.149,8.96145833 C17.417,9.00729167 17.681,9.06770833 17.941,9.14583333 C17.975,9.15625 18.01,9.1625 18.043,9.17291667 C18.329,9.26354167 18.608,9.37916667 18.881,9.50833333 C18.95,9.540625 19.018,9.57604167 19.086,9.61145833 C19.328,9.73541667 19.565,9.87291667 19.793,10.0270833 C21.72,11.328125 23,13.5822917 23,16.1458333 C23,16.721875 23.448,17.1875 24,17.1875 C24.552,17.1875 25,16.721875 25,16.1458333 C25,13.2770833 23.754,10.709375 21.8,8.98854167 C24.666,5.08229167 29.388,2.60416667 34.084,2.60416667 C41.828,2.60416667 48.262,8.99479167 48.932,17.0697917 C47.91,16.9947917 46.379,16.95625 44.849,17.2 C44.303,17.2864583 43.928,17.8177083 44.011,18.3864583 C44.086,18.9020833 44.512,19.271875 44.998,19.271875 C45.048,19.271875 45.099,19.2677083 45.15,19.259375 C47.374,18.909375 49.693,19.2375 49.834,19.2572917 C54.49,20.1791667 58,24.646875 58,29.6583333 C58,35.4177083 53.501,40.1041667 47.972,40.1041667 L44,40.1041667 C43.448,40.1041667 43,40.5697917 43,41.1458333 C43,41.721875 43.448,42.1875 44,42.1875 L47.972,42.1875 C54.604,42.1875 60,36.5666667 60,29.6583333 C60,23.940625 56.173,18.8125 50.975,17.3895833 Z" id="Shape"></path>
                        <path d="M31.708,27.9104167 C31.616,27.8135417 31.505,27.7375 31.382,27.684375 C31.138,27.5791667 30.862,27.5791667 30.618,27.684375 C30.495,27.7375 30.385,27.8135417 30.292,27.9104167 L22.293,36.2427083 C21.902,36.65 21.902,37.3083333 22.293,37.715625 C22.488,37.91875 22.744,38.0208333 23,38.0208333 C23.256,38.0208333 23.512,37.91875 23.707,37.715625 L30,31.1604167 L30,52.6041667 C30,53.1802083 30.448,53.6458333 31,53.6458333 C31.552,53.6458333 32,53.1802083 32,52.6041667 L32,31.1604167 L38.293,37.715625 C38.488,37.91875 38.744,38.0208333 39,38.0208333 C39.256,38.0208333 39.512,37.91875 39.707,37.715625 C40.098,37.3083333 40.098,36.65 39.707,36.2427083 L31.708,27.9104167 Z" id="Shape"></path>
                    </g>
                </g>
            </g>
        </g>
    </g>
</svg>