<?xml version="1.0" encoding="UTF-8"?>
<svg width="50px" height="50px" viewBox="0 0 50 50" version="1.1" xmlns="http://www.w3.org/2000/svg" xmlns:xlink="http://www.w3.org/1999/xlink">
    <!-- Generator: Sketch 49.1 (51147) - http://www.bohemiancoding.com/sketch -->
    <title>connection</title>
    <desc>Created with Sketch.</desc>
    <defs></defs>
    <g id="Page-1" stroke="none" stroke-width="1" fill="none" fill-rule="evenodd" opacity="0.7">
        <g id="CM_main_1440" transform="translate(-212.000000, -1343.000000)" fill="#3DBDB6" fill-rule="nonzero">
            <g id="Slide-2" transform="translate(149.000000, 966.000000)">
                <g id="teps" transform="translate(0.000000, 2.000000)">
                    <g id="Crypto" transform="translate(0.000000, 315.000000)">
                        <g id="connection" transform="translate(63.000000, 60.000000)">
                            <path d="M46.4132653,23.7653061 C45.3520408,23.1632653 44.2091837,22.877551 43.0663265,22.8673469 L41.7704082,17.1632653 C44.7806122,15.0918367 45.6683673,10.9795918 43.7295918,7.83673469 C41.7295918,4.59183673 37.4540816,3.58163265 34.2091837,5.58163265 C33.25,6.17346939 32.494898,6.95918367 31.9438776,7.85714286 L27.127551,6.36734694 C26.8418367,2.80612245 23.8622449,0 20.2295918,0 C16.4132653,0 13.3112245,3.10204082 13.3112245,6.91836735 C13.3112245,7.91836735 13.5255102,8.85714286 13.9030612,9.71428571 L9.54591837,13.755102 C6.38265306,12.4591837 2.64795918,13.6836735 0.913265306,16.7346939 C-0.974489796,20.0510204 0.18877551,24.2857143 3.50510204,26.1632653 C4.37244898,26.6530612 5.31122449,26.9387755 6.23979592,27.0306122 L7.62755102,33.1530612 C5.03571429,35.3163265 4.35204082,39.1326531 6.17857143,42.0918367 C8.17857143,45.3367347 12.4540816,46.3469388 15.6989796,44.3469388 C16.6581633,43.755102 17.4132653,42.9693878 17.9642857,42.0714286 L22.7908163,43.5612245 C23.0765306,47.1122449 26.0561224,49.9183673 29.6887755,49.9183673 C33.505102,49.9183673 36.6071429,46.8163265 36.6071429,43 C36.6071429,41.7857143 36.2908163,40.6530612 35.75,39.6632653 L39.8112245,35.8979592 C43.0867347,37.6020408 47.1683673,36.4081633 49.005102,33.1734694 C50.8928571,29.877551 49.7295918,25.6428571 46.4132653,23.7653061 Z M36.4132653,9.13265306 C37.6989796,8.33673469 39.3826531,8.74489796 40.1785714,10.0204082 C40.9744898,11.3061224 40.5663265,12.9897959 39.2908163,13.7857143 C38.005102,14.5816327 36.3214286,14.1734694 35.5255102,12.8979592 C34.7295918,11.6122449 35.127551,9.92857143 36.4132653,9.13265306 Z M37.7602041,18.377551 L39.0561224,24.0918367 C38.2295918,24.6632653 37.505102,25.4285714 36.9744898,26.3571429 C35.7806122,28.4693878 35.8112245,30.9387755 36.8520408,32.9489796 L32.7091837,36.7959184 C31.8010204,36.3469388 30.7704082,36.1020408 29.6887755,36.1020408 C27.1683673,36.1020408 24.9540816,37.4591837 23.7397959,39.4897959 L18.9744898,38.0102041 C18.9030612,36.9183673 18.5765306,35.8265306 17.9642857,34.8367347 C16.5663265,32.5714286 14.0561224,31.3979592 11.5663265,31.5714286 L10.3418367,26.1632653 C11.3928571,25.5714286 12.3010204,24.6938776 12.9438776,23.5714286 C14.25,21.2755102 14.0969388,18.5510204 12.7806122,16.4591837 L16.6887755,12.8367347 C17.7295918,13.4591837 18.9438776,13.8163265 20.2397959,13.8163265 C22.7602041,13.8163265 24.9744898,12.4591837 26.1785714,10.4387755 L30.9540816,11.9183673 C31.0255102,13.0102041 31.3520408,14.0918367 31.9642857,15.0918367 C33.25,17.1836735 35.4744898,18.3469388 37.7602041,18.377551 Z M20.2397959,4.17346939 C21.75,4.17346939 22.9744898,5.39795918 22.9744898,6.90816327 C22.9744898,8.41836735 21.75,9.64285714 20.2397959,9.64285714 C18.7295918,9.64285714 17.505102,8.41836735 17.505102,6.90816327 C17.505102,5.39795918 18.7295918,4.17346939 20.2397959,4.17346939 Z M4.55612245,18.8061224 C5.30102041,17.5 6.9744898,17.0306122 8.28061224,17.7755102 C9.58673469,18.5204082 10.0561224,20.1938776 9.31122449,21.5 C8.56632653,22.8061224 6.89285714,23.2755102 5.58673469,22.5306122 C4.27040816,21.7857143 3.81122449,20.1122449 4.55612245,18.8061224 Z M13.5153061,40.7959184 C12.2295918,41.5918367 10.5459184,41.1836735 9.75,39.9081633 C8.95408163,38.622449 9.3622449,36.9387755 10.6377551,36.1428571 C11.9234694,35.3469388 13.6071429,35.755102 14.4030612,37.0306122 C15.1989796,38.3163265 14.8010204,40 13.5153061,40.7959184 Z M29.6887755,45.755102 C28.1785714,45.755102 26.9540816,44.5306122 26.9540816,43.0204082 C26.9540816,41.5102041 28.1785714,40.2857143 29.6887755,40.2857143 C31.1989796,40.2857143 32.4234694,41.5102041 32.4234694,43.0204082 C32.4234694,44.5306122 31.1989796,45.755102 29.6887755,45.755102 Z M45.372449,31.122449 C44.627551,32.4285714 42.9540816,32.8979592 41.6479592,32.1530612 C40.3418367,31.4081633 39.872449,29.7346939 40.6173469,28.4285714 C41.3622449,27.122449 43.0357143,26.6530612 44.3418367,27.3979592 C45.6581633,28.1428571 46.1173469,29.8163265 45.372449,31.122449 Z" id="Shape"></path>
                        </g>
                    </g>
                </g>
            </g>
        </g>
    </g>
</svg>