<?xml version="1.0" encoding="UTF-8"?>
<svg width="80px" height="80px" viewBox="0 0 80 80" version="1.1" xmlns="http://www.w3.org/2000/svg" xmlns:xlink="http://www.w3.org/1999/xlink">
    <!-- Generator: Sketch 49.1 (51147) - http://www.bohemiancoding.com/sketch -->
    <title>rating</title>
    <desc>Created with Sketch.</desc>
    <defs></defs>
    <g id="Page-1" stroke="none" stroke-width="1" fill="none" fill-rule="evenodd">
        <g id="CM_main_1440" transform="translate(-1133.000000, -2475.000000)" fill="#45ADAA" fill-rule="nonzero">
            <g id="Calculator" transform="translate(150.000000, 2241.000000)">
                <g id="Energy" transform="translate(608.000000, 144.000000)">
                    <g id="energy" transform="translate(0.000000, 61.000000)">
                        <g id="тип1" transform="translate(340.000000, 0.000000)">
                            <g id="rating" transform="translate(35.000000, 29.000000)">
                                <path d="M58.730625,39.840625 C57.868125,39.840625 57.1682813,40.540625 57.1682813,41.4029687 C57.1682813,42.2653125 57.8682813,42.9653125 58.730625,42.9653125 C59.5929688,42.9653125 60.2929688,42.2653125 60.2929688,41.4029687 C60.2929688,40.540625 59.5929688,39.840625 58.730625,39.840625 Z" id="Shape"></path>
                                <path d="M30.6078125,68.7445313 C29.7453125,68.7445313 29.0454688,69.4445313 29.0454688,70.306875 C29.0454688,71.169375 29.7454688,71.8692188 30.6078125,71.8692188 C31.4703125,71.8692188 32.1701562,71.1692187 32.1701562,70.306875 C32.1701563,69.444375 31.4703125,68.7445313 30.6078125,68.7445313 Z" id="Shape"></path>
                                <path d="M22.7254688,8.42140625 C22.545625,7.843125 22.0478125,7.4209375 21.448125,7.33765625 L15.4654687,6.5084375 L12.9067187,0.9128125 C12.6525,0.3565625 12.0973437,0 11.4859375,0 C10.874375,0 10.319375,0.35671875 10.0651562,0.9128125 L7.50765625,6.50578125 L1.37375,7.33703125 C0.7684375,7.41890625 0.26671875,7.84625 0.08890625,8.4303125 C-0.08890625,9.0146875 0.09015625,9.64890625 0.5471875,10.0542188 L5.09109375,14.0832812 L4.11265625,20.1984375 C4.01921875,20.7826562 4.26359375,21.369375 4.74421875,21.714375 C5.225,22.059375 5.85875,22.1032813 6.3825,21.8282813 L11.48625,19.145 L16.59,21.8282813 C16.8185937,21.9484375 17.0682812,22.0076563 17.316875,22.0076563 C17.6379687,22.0076563 17.9575,21.90875 18.2282812,21.7145313 C18.7089062,21.3695312 18.9534375,20.7826562 18.86,20.19875 L17.8803125,14.0682813 L22.288125,10.0384375 C22.7348437,9.6296875 22.9053125,8.9996875 22.7254688,8.42140625 Z M15.1501563,12.3301563 C14.7621875,12.685 14.5785937,13.2109375 14.6615625,13.7298438 L15.2815625,17.6103125 L12.2129688,15.9970312 C11.9853125,15.8773438 11.735625,15.8176562 11.4859375,15.8176562 C11.2360938,15.8176562 10.9864063,15.8775 10.7589063,15.9970312 L7.69125,17.6098437 L8.31203125,13.7301563 C8.39640625,13.2026563 8.20546875,12.66875 7.80578125,12.3142188 L5.16859375,9.97609375 L8.7803125,9.4865625 C9.31140625,9.4146875 9.76859375,9.07546875 9.99125,8.588125 L11.485625,5.3196875 L12.9801563,8.588125 C13.2023438,9.0740625 13.6573438,9.41265625 14.1865625,9.48609375 L17.7245313,9.9765625 L15.1501563,12.3301563 Z" id="Shape"></path>
                                <path d="M51.32,8.43046875 C51.1420312,7.84625 50.6401562,7.4190625 50.035,7.3371875 L43.899375,6.50578125 L41.3421875,0.9128125 C41.0878125,0.35671875 40.5326562,0 39.92125,0 C39.3098437,0 38.7546875,0.35671875 38.5003125,0.9128125 L35.9428125,6.50578125 L29.8089062,7.3371875 C29.2035937,7.4190625 28.701875,7.84640625 28.5240625,8.43046875 C28.34625,9.01484375 28.5253125,9.6490625 28.9823437,10.054375 L33.52625,14.0834375 L32.5476562,20.1985937 C32.4542187,20.7828125 32.6985937,21.3695312 33.1792187,21.7145312 C33.6598437,22.0595312 34.29375,22.1034375 34.8175,21.8284375 L39.92125,19.1451563 L45.0248437,21.8284375 C45.2534375,21.9485938 45.503125,22.0078125 45.7517187,22.0078125 C46.0728125,22.0078125 46.3923437,21.9089062 46.663125,21.7146875 C47.1435937,21.3696875 47.388125,20.7828125 47.2948437,20.1989063 L46.3175,14.0835938 L50.8617187,10.054375 C51.31875,9.6490625 51.4975,9.0146875 51.32,8.43046875 Z M43.6028125,12.3142188 C43.203125,12.6685938 43.0123437,13.2025 43.0965625,13.7298438 L43.7167187,17.6101563 L40.6482812,15.9970313 C40.420625,15.8773438 40.1709375,15.8176563 39.92125,15.8176563 C39.6715625,15.8176563 39.4217187,15.8775 39.1942187,15.9970313 L36.1264062,17.6098438 L36.7471875,13.7301563 C36.8315625,13.2026563 36.640625,12.66875 36.2409375,12.3142188 L33.6039062,9.9759375 L37.215625,9.48640625 C37.7467187,9.41453125 38.20375,9.0753125 38.4267187,8.5878125 L39.9210937,5.319375 L41.4153125,8.5878125 C41.6382812,9.0753125 42.0954687,9.41453125 42.6264062,9.48640625 L46.2395312,9.97609375 L43.6028125,12.3142188 Z" id="Shape"></path>
                                <path d="M22.7254688,37.5095312 C22.545625,36.93125 22.0478125,36.5090625 21.448125,36.4259375 L15.4671875,35.5970312 L12.9078125,29.9751562 C12.6542188,29.4179687 12.098125,29.0601562 11.4859375,29.0601562 C10.8735938,29.0601562 10.3176563,29.4179687 10.0639063,29.9751562 L7.5059375,35.594375 L1.37375,36.4253125 C0.7684375,36.5071875 0.26671875,36.9345312 0.08890625,37.5185938 C-0.08890625,38.1029688 0.09,38.7371875 0.54703125,39.1425 L5.0909375,43.1715625 L4.11234375,49.2867187 C4.01890625,49.8709375 4.26328125,50.4576562 4.74390625,50.8026562 C5.2246875,51.1476562 5.8584375,51.1915625 6.3821875,50.9165625 L11.4859375,48.2332812 L16.5896875,50.9165625 C16.8182813,51.0367187 17.0679688,51.0959375 17.3165625,51.0959375 C17.6376563,51.0959375 17.9571875,50.9970313 18.2279688,50.8028125 C18.7085938,50.4578125 18.953125,49.8709375 18.8596875,49.2870312 L17.8801563,43.1567188 L22.2879688,39.1265625 C22.7348437,38.7178125 22.9053125,38.0876562 22.7254688,37.5095312 Z M15.1501563,41.41875 C14.7621875,41.7734375 14.5785938,42.299375 14.6615625,42.8182812 L15.2815625,46.6985937 L12.2129688,45.0853125 C11.9853125,44.965625 11.735625,44.9059375 11.4859375,44.9059375 C11.23625,44.9059375 10.9864063,44.9657812 10.7589063,45.0853125 L7.69125,46.698125 L8.31203125,42.8185937 C8.39640625,42.2910938 8.20546875,41.7571875 7.80578125,41.4026562 L5.16875,39.064375 L8.78046875,38.5748437 C9.3125,38.5028125 9.77015625,38.1625 9.99265625,37.6739062 L11.4859375,34.3932812 L12.979375,37.6739062 C13.2010938,38.1609375 13.6567187,38.5007812 14.186875,38.5742188 L17.7248438,39.0645313 L15.1501563,41.41875 Z" id="Shape"></path>
                                <path d="M51.32,37.51875 C51.1420312,36.934375 50.64,36.5073438 50.035,36.4254688 L43.9010937,35.5945313 L41.3432812,29.9754687 C41.0895312,29.418125 40.5335937,29.0603125 39.92125,29.0603125 C39.3089062,29.0603125 38.7529687,29.418125 38.4992187,29.9753125 L35.9410937,35.5945312 L29.8089062,36.4254688 C29.2035937,36.5073437 28.701875,36.9346875 28.5240625,37.51875 C28.34625,38.103125 28.5251562,38.7373437 28.9821875,39.1426562 L33.5260937,43.1717187 L32.5476562,49.286875 C32.4542187,49.8710937 32.6985937,50.4578125 33.1792187,50.8028125 C33.6598437,51.1478125 34.29375,51.1917187 34.8175,50.9167187 L39.92125,48.2334375 L45.0248437,50.9167187 C45.2534375,51.036875 45.503125,51.0960937 45.7517187,51.0960937 C46.0728125,51.0960937 46.3923437,50.9971875 46.663125,50.8029688 C47.1435937,50.4579687 47.388125,49.8710938 47.2948437,49.2871875 L46.3171875,43.171875 L50.8614063,39.1426563 C51.31875,38.7371875 51.4975,38.1029688 51.32,37.51875 Z M43.6028125,41.4026563 C43.203125,41.7571875 43.0123437,42.2909375 43.0965625,42.8182813 L43.7167187,46.6984375 L40.6482813,45.0853125 C40.420625,44.965625 40.1709375,44.9059375 39.92125,44.9059375 C39.6715625,44.9059375 39.4217188,44.9657813 39.1942188,45.0853125 L36.1264063,46.698125 L36.7471875,42.8185938 C36.8315625,42.2910938 36.640625,41.7571875 36.2409375,41.4026563 L33.6039063,39.064375 L37.215625,38.5748437 C37.7476563,38.5028125 38.2053125,38.1625 38.4278125,37.6739063 L39.92125,34.3934375 L41.4145313,37.67375 C41.6370312,38.1625 42.0948438,38.5028125 42.6267188,38.5748437 L46.2398438,39.064375 L43.6028125,41.4026563 Z" id="Shape"></path>
                                <path d="M22.7253125,66.4134375 C22.5454688,65.835 22.0476563,65.4129688 21.4479688,65.3298438 L15.4559375,64.4995313 L12.900625,59.0478125 C12.6434375,58.4989063 12.091875,58.1485938 11.4859375,58.1485938 C10.8798438,58.1485938 10.3285938,58.4990625 10.07125,59.0478125 L7.5171875,64.496875 L1.37375,65.329375 C0.7684375,65.41125 0.26671875,65.8385938 0.08890625,66.4226563 C-0.08890625,67.0070313 0.09,67.64125 0.54703125,68.0465625 L5.0909375,72.075625 L4.11234375,78.1907812 C4.01625,78.7920312 4.27796875,79.3940625 4.78296875,79.7339062 C5.04625,79.9110937 5.35046875,80 5.6553125,80 C5.9353125,80 6.21578125,79.9248437 6.46515625,79.77375 L11.4859375,76.7304688 L16.5070313,79.7735937 C17.0275,80.0892187 17.6839063,80.0739062 18.1889063,79.73375 C18.6939063,79.3940625 18.9557813,78.7920312 18.8596875,78.1909375 L17.8801563,72.060625 L22.2879688,68.0304687 C22.7346875,67.621875 22.9051563,66.991875 22.7253125,66.4134375 Z M15.1501563,70.3225 C14.7621875,70.6771875 14.5785938,71.2029688 14.6615625,71.7220313 L15.2417188,75.3526563 L12.2959375,73.5670313 C12.0470313,73.4160938 11.7665625,73.3407813 11.4860938,73.3407813 C11.205625,73.3407813 10.9251563,73.4160938 10.6760938,73.5670313 L7.7309375,75.3521875 L8.311875,71.7225 C8.39625,71.195 8.2053125,70.6610938 7.805625,70.3065625 L5.16875,67.9682813 L8.78046875,67.47875 C9.30640625,67.4075 9.76015625,67.0740625 9.9853125,66.5935938 L11.4859375,63.3920313 L12.9865625,66.5935938 C13.2110938,67.0726563 13.6628125,67.4054688 14.1867188,67.478125 L17.7246875,67.9684375 L15.1501563,70.3225 Z" id="Shape"></path>
                                <path d="M79.91125,8.43046875 C79.7334375,7.84625 79.2315625,7.4190625 78.6264063,7.3371875 L72.4907812,6.50578125 L69.9335938,0.9128125 C69.6792188,0.35671875 69.1240625,0 68.5128125,0 C67.9014063,0 67.34625,0.35671875 67.091875,0.9128125 L64.5345313,6.50578125 L58.400625,7.3371875 C57.7953125,7.4190625 57.2935938,7.84640625 57.115625,8.43046875 C56.9378125,9.01484375 57.116875,9.6490625 57.5739063,10.054375 L62.1178125,14.0832813 L61.1392188,20.1985937 C61.045625,20.7828125 61.2901563,21.3695312 61.7707813,21.7145312 C62.25125,22.0596875 62.8854688,22.1034375 63.4089063,21.8284375 L68.5126563,19.1451562 L73.61625,21.8284375 C73.8448437,21.9485938 74.0945312,22.0078125 74.343125,22.0078125 C74.6642188,22.0078125 74.98375,21.9089062 75.2545312,21.7146875 C75.735,21.3696875 75.9795312,20.7828125 75.88625,20.1989063 L74.9089063,14.0835938 L79.453125,10.054375 C79.91,9.6490625 80.0889062,9.01484375 79.91125,8.43046875 Z M72.194375,12.3142188 C71.7946875,12.6685938 71.6039062,13.2025 71.688125,13.7298438 L72.3082812,17.6101563 L69.2398438,15.9970313 C69.0121875,15.8773438 68.7625,15.8176563 68.5128125,15.8176563 C68.263125,15.8176563 68.0132813,15.8775 67.7857812,15.9970313 L64.7179687,17.6098438 L65.33875,13.7301563 C65.4232813,13.2026563 65.2321875,12.66875 64.8326562,12.3142188 L62.195625,9.9759375 L65.8071875,9.48640625 C66.3382812,9.41453125 66.7954687,9.0753125 67.0182812,8.5878125 L68.5126562,5.319375 L70.006875,8.5878125 C70.2298438,9.0753125 70.6870312,9.41453125 71.2179687,9.48640625 L74.8310937,9.97609375 L72.194375,12.3142188 Z" id="Shape"></path>
                                <path d="M78.4165625,39.840625 L65.4489062,39.840625 C64.5860938,39.840625 63.8865625,40.5403125 63.8865625,41.4029687 C63.8865625,42.265625 64.58625,42.9653125 65.4489062,42.9653125 L78.4165625,42.9653125 C79.279375,42.9653125 79.9789062,42.265625 79.9789062,41.4029687 C79.9789062,40.5403125 79.279375,39.840625 78.4165625,39.840625 Z" id="Shape"></path>
                                <path d="M78.4165625,68.7445313 L36.8573437,68.7445313 C35.994375,68.7445313 35.295,69.4442188 35.295,70.306875 C35.295,71.1696875 35.9945313,71.8692188 36.8573437,71.8692188 L78.4165625,71.8692188 C79.279375,71.8692188 79.9789063,71.1695313 79.9789063,70.306875 C79.9789063,69.4440625 79.279375,68.7445313 78.4165625,68.7445313 Z" id="Shape"></path>
                            </g>
                        </g>
                    </g>
                </g>
            </g>
        </g>
    </g>
</svg>