<?xml version="1.0" encoding="UTF-8"?>
<svg width="80px" height="51px" viewBox="0 0 80 51" version="1.1" xmlns="http://www.w3.org/2000/svg" xmlns:xlink="http://www.w3.org/1999/xlink">
    <!-- Generator: Sketch 49.1 (51147) - http://www.bohemiancoding.com/sketch -->
    <title>rating</title>
    <desc>Created with Sketch.</desc>
    <defs></defs>
    <g id="Page-1" stroke="none" stroke-width="1" fill="none" fill-rule="evenodd">
        <g id="CM_main_1440" transform="translate(-963.000000, -2504.000000)" fill="#45ADAA" fill-rule="nonzero">
            <g id="Calculator" transform="translate(150.000000, 2241.000000)">
                <g id="Energy" transform="translate(608.000000, 144.000000)">
                    <g id="energy" transform="translate(0.000000, 61.000000)">
                        <g id="тип1" transform="translate(170.000000, 0.000000)">
                            <g id="rating" transform="translate(35.000000, 58.000000)">
                                <path d="M58.730625,10.840625 C57.868125,10.840625 57.1682813,11.540625 57.1682813,12.4029687 C57.1682813,13.2653125 57.8682813,13.9653125 58.730625,13.9653125 C59.5929688,13.9653125 60.2929688,13.2653125 60.2929688,12.4029687 C60.2929688,11.540625 59.5929688,10.840625 58.730625,10.840625 Z" id="Shape"></path>
                                <path d="M30.6078125,39.7445312 C29.7453125,39.7445312 29.0454688,40.4445312 29.0454688,41.306875 C29.0454688,42.169375 29.7454688,42.8692187 30.6078125,42.8692187 C31.4703125,42.8692187 32.1701562,42.1692187 32.1701562,41.306875 C32.1701563,40.444375 31.4703125,39.7445312 30.6078125,39.7445312 Z" id="Shape"></path>
                                <path d="M22.7254688,8.50953125 C22.545625,7.93125 22.0478125,7.5090625 21.448125,7.4259375 L15.4671875,6.59703125 L12.9078125,0.97515625 C12.6542188,0.41796875 12.098125,0.06015625 11.4859375,0.06015625 C10.8735938,0.06015625 10.3176563,0.41796875 10.0639063,0.97515625 L7.5059375,6.594375 L1.37375,7.4253125 C0.7684375,7.5071875 0.26671875,7.93453125 0.08890625,8.51859375 C-0.08890625,9.10296875 0.09,9.7371875 0.54703125,10.1425 L5.0909375,14.1715625 L4.11234375,20.2867188 C4.01890625,20.8709375 4.26328125,21.4576563 4.74390625,21.8026563 C5.2246875,22.1476563 5.8584375,22.1915625 6.3821875,21.9165625 L11.4859375,19.2332813 L16.5896875,21.9165625 C16.8182813,22.0367188 17.0679688,22.0959375 17.3165625,22.0959375 C17.6376563,22.0959375 17.9571875,21.9970313 18.2279688,21.8028125 C18.7085938,21.4578125 18.953125,20.8709375 18.8596875,20.2870313 L17.8801563,14.1567188 L22.2879688,10.1265625 C22.7348437,9.7178125 22.9053125,9.08765625 22.7254688,8.50953125 Z M15.1501563,12.41875 C14.7621875,12.7734375 14.5785938,13.299375 14.6615625,13.8182813 L15.2815625,17.6985938 L12.2129688,16.0853125 C11.9853125,15.965625 11.735625,15.9059375 11.4859375,15.9059375 C11.23625,15.9059375 10.9864063,15.9657813 10.7589063,16.0853125 L7.69125,17.698125 L8.31203125,13.8185938 C8.39640625,13.2910938 8.20546875,12.7571875 7.80578125,12.4026563 L5.16875,10.064375 L8.78046875,9.57484375 C9.3125,9.5028125 9.77015625,9.1625 9.99265625,8.67390625 L11.4859375,5.39328125 L12.979375,8.67390625 C13.2010938,9.1609375 13.6567187,9.50078125 14.186875,9.57421875 L17.7248438,10.0645313 L15.1501563,12.41875 Z" id="Shape"></path>
                                <path d="M51.32,8.51875 C51.1420312,7.934375 50.64,7.50734375 50.035,7.42546875 L43.9010937,6.59453125 L41.3432812,0.97546875 C41.0895312,0.418125 40.5335937,0.0603125 39.92125,0.0603125 C39.3089062,0.0603125 38.7529687,0.418125 38.4992187,0.9753125 L35.9410937,6.59453125 L29.8089062,7.42546875 C29.2035937,7.50734375 28.701875,7.9346875 28.5240625,8.51875 C28.34625,9.103125 28.5251562,9.73734375 28.9821875,10.1426562 L33.5260937,14.1717187 L32.5476562,20.286875 C32.4542187,20.8710937 32.6985937,21.4578125 33.1792187,21.8028125 C33.6598437,22.1478125 34.29375,22.1917187 34.8175,21.9167187 L39.92125,19.2334375 L45.0248437,21.9167187 C45.2534375,22.036875 45.503125,22.0960937 45.7517187,22.0960937 C46.0728125,22.0960937 46.3923437,21.9971875 46.663125,21.8029687 C47.1435937,21.4579687 47.388125,20.8710937 47.2948437,20.2871875 L46.3171875,14.171875 L50.8614063,10.1426562 C51.31875,9.7371875 51.4975,9.10296875 51.32,8.51875 Z M43.6028125,12.4026562 C43.203125,12.7571875 43.0123437,13.2909375 43.0965625,13.8182812 L43.7167187,17.6984375 L40.6482813,16.0853125 C40.420625,15.965625 40.1709375,15.9059375 39.92125,15.9059375 C39.6715625,15.9059375 39.4217188,15.9657812 39.1942188,16.0853125 L36.1264063,17.698125 L36.7471875,13.8185937 C36.8315625,13.2910937 36.640625,12.7571875 36.2409375,12.4026562 L33.6039063,10.064375 L37.215625,9.57484375 C37.7476563,9.5028125 38.2053125,9.1625 38.4278125,8.67390625 L39.92125,5.3934375 L41.4145313,8.67375 C41.6370312,9.1625 42.0948438,9.5028125 42.6267188,9.57484375 L46.2398438,10.064375 L43.6028125,12.4026562 Z" id="Shape"></path>
                                <path d="M22.7253125,37.4134375 C22.5454688,36.835 22.0476563,36.4129688 21.4479688,36.3298438 L15.4559375,35.4995313 L12.900625,30.0478125 C12.6434375,29.4989063 12.091875,29.1485938 11.4859375,29.1485938 C10.8798438,29.1485938 10.3285938,29.4990625 10.07125,30.0478125 L7.5171875,35.496875 L1.37375,36.329375 C0.7684375,36.41125 0.26671875,36.8385938 0.08890625,37.4226563 C-0.08890625,38.0070313 0.09,38.64125 0.54703125,39.0465625 L5.0909375,43.075625 L4.11234375,49.1907813 C4.01625,49.7920313 4.27796875,50.3940625 4.78296875,50.7339063 C5.04625,50.9110938 5.35046875,51 5.6553125,51 C5.9353125,51 6.21578125,50.9248438 6.46515625,50.77375 L11.4859375,47.7304688 L16.5070313,50.7735938 C17.0275,51.0892188 17.6839063,51.0739063 18.1889063,50.73375 C18.6939063,50.3940625 18.9557813,49.7920313 18.8596875,49.1909375 L17.8801563,43.060625 L22.2879688,39.0304688 C22.7346875,38.621875 22.9051563,37.991875 22.7253125,37.4134375 Z M15.1501563,41.3225 C14.7621875,41.6771875 14.5785938,42.2029688 14.6615625,42.7220313 L15.2417188,46.3526563 L12.2959375,44.5670313 C12.0470313,44.4160938 11.7665625,44.3407813 11.4860938,44.3407813 C11.205625,44.3407813 10.9251563,44.4160938 10.6760938,44.5670313 L7.7309375,46.3521875 L8.311875,42.7225 C8.39625,42.195 8.2053125,41.6610938 7.805625,41.3065625 L5.16875,38.9682813 L8.78046875,38.47875 C9.30640625,38.4075 9.76015625,38.0740625 9.9853125,37.5935938 L11.4859375,34.3920313 L12.9865625,37.5935938 C13.2110938,38.0726563 13.6628125,38.4054688 14.1867188,38.478125 L17.7246875,38.9684375 L15.1501563,41.3225 Z" id="Shape"></path>
                                <path d="M78.4165625,10.840625 L65.4489062,10.840625 C64.5860938,10.840625 63.8865625,11.5403125 63.8865625,12.4029687 C63.8865625,13.265625 64.58625,13.9653125 65.4489062,13.9653125 L78.4165625,13.9653125 C79.279375,13.9653125 79.9789062,13.265625 79.9789062,12.4029687 C79.9789062,11.5403125 79.279375,10.840625 78.4165625,10.840625 Z" id="Shape"></path>
                                <path d="M78.4165625,39.7445312 L36.8573437,39.7445312 C35.994375,39.7445312 35.295,40.4442187 35.295,41.306875 C35.295,42.1696875 35.9945313,42.8692187 36.8573437,42.8692187 L78.4165625,42.8692187 C79.279375,42.8692187 79.9789063,42.1695312 79.9789063,41.306875 C79.9789063,40.4440625 79.279375,39.7445312 78.4165625,39.7445312 Z" id="Shape"></path>
                            </g>
                        </g>
                    </g>
                </g>
            </g>
        </g>
    </g>
</svg>