<?xml version="1.0" encoding="UTF-8"?>
<svg width="80px" height="22px" viewBox="0 0 80 22" version="1.1" xmlns="http://www.w3.org/2000/svg" xmlns:xlink="http://www.w3.org/1999/xlink">
    <!-- Generator: Sketch 49.1 (51147) - http://www.bohemiancoding.com/sketch -->
    <title>rating</title>
    <desc>Created with Sketch.</desc>
    <defs></defs>
    <g id="Page-1" stroke="none" stroke-width="1" fill="none" fill-rule="evenodd">
        <g id="CM_main_1440" transform="translate(-793.000000, -2533.000000)" fill="#45ADAA" fill-rule="nonzero">
            <g id="Calculator" transform="translate(150.000000, 2241.000000)">
                <g id="Energy" transform="translate(608.000000, 144.000000)">
                    <g id="energy" transform="translate(0.000000, 61.000000)">
                        <g id="тип1">
                            <g id="rating" transform="translate(35.000000, 87.000000)">
                                <path d="M30.6078125,10.7445312 C29.7453125,10.7445312 29.0454688,11.4445312 29.0454688,12.306875 C29.0454688,13.169375 29.7454688,13.8692187 30.6078125,13.8692187 C31.4703125,13.8692187 32.1701562,13.1692187 32.1701562,12.306875 C32.1701563,11.444375 31.4703125,10.7445312 30.6078125,10.7445312 Z" id="Shape"></path>
                                <path d="M22.7253125,8.4134375 C22.5454688,7.835 22.0476563,7.41296875 21.4479688,7.32984375 L15.4559375,6.49953125 L12.900625,1.0478125 C12.6434375,0.49890625 12.091875,0.14859375 11.4859375,0.14859375 C10.8798438,0.14859375 10.3285938,0.4990625 10.07125,1.0478125 L7.5171875,6.496875 L1.37375,7.329375 C0.7684375,7.41125 0.26671875,7.83859375 0.08890625,8.42265625 C-0.08890625,9.00703125 0.09,9.64125 0.54703125,10.0465625 L5.0909375,14.075625 L4.11234375,20.1907813 C4.01625,20.7920313 4.27796875,21.3940625 4.78296875,21.7339063 C5.04625,21.9110938 5.35046875,22 5.6553125,22 C5.9353125,22 6.21578125,21.9248438 6.46515625,21.77375 L11.4859375,18.7304688 L16.5070313,21.7735938 C17.0275,22.0892188 17.6839063,22.0739063 18.1889063,21.73375 C18.6939063,21.3940625 18.9557813,20.7920313 18.8596875,20.1909375 L17.8801563,14.060625 L22.2879688,10.0304688 C22.7346875,9.621875 22.9051563,8.991875 22.7253125,8.4134375 Z M15.1501563,12.3225 C14.7621875,12.6771875 14.5785938,13.2029688 14.6615625,13.7220313 L15.2417188,17.3526563 L12.2959375,15.5670313 C12.0470313,15.4160938 11.7665625,15.3407813 11.4860938,15.3407813 C11.205625,15.3407813 10.9251563,15.4160938 10.6760938,15.5670313 L7.7309375,17.3521875 L8.311875,13.7225 C8.39625,13.195 8.2053125,12.6610938 7.805625,12.3065625 L5.16875,9.96828125 L8.78046875,9.47875 C9.30640625,9.4075 9.76015625,9.0740625 9.9853125,8.59359375 L11.4859375,5.39203125 L12.9865625,8.59359375 C13.2110938,9.07265625 13.6628125,9.40546875 14.1867188,9.478125 L17.7246875,9.9684375 L15.1501563,12.3225 Z" id="Shape"></path>
                                <path d="M78.4165625,10.7445312 L36.8573437,10.7445312 C35.994375,10.7445312 35.295,11.4442187 35.295,12.306875 C35.295,13.1696875 35.9945313,13.8692187 36.8573437,13.8692187 L78.4165625,13.8692187 C79.279375,13.8692187 79.9789063,13.1695312 79.9789063,12.306875 C79.9789063,11.4440625 79.279375,10.7445312 78.4165625,10.7445312 Z" id="Shape"></path>
                            </g>
                        </g>
                    </g>
                </g>
            </g>
        </g>
    </g>
</svg>