<?xml version="1.0" encoding="UTF-8"?>
<svg width="50px" height="50px" viewBox="0 0 50 50" version="1.1" xmlns="http://www.w3.org/2000/svg" xmlns:xlink="http://www.w3.org/1999/xlink">
    <!-- Generator: Sketch 49.1 (51147) - http://www.bohemiancoding.com/sketch -->
    <title>settings (2)</title>
    <desc>Created with Sketch.</desc>
    <defs></defs>
    <g id="Page-1" stroke="none" stroke-width="1" fill="none" fill-rule="evenodd" opacity="0.7">
        <g id="CM_main_1440" transform="translate(-212.000000, -1190.000000)" fill="#3DBDB6" fill-rule="nonzero">
            <g id="Slide-2" transform="translate(149.000000, 966.000000)">
                <g id="teps" transform="translate(0.000000, 2.000000)">
                    <g id="Tech" transform="translate(0.000000, 160.000000)">
                        <g id="settings-(2)" transform="translate(63.000000, 62.000000)">
                            <path d="M47.8818737,18.589613 L44.9185336,18.589613 C44.6028513,17.5305499 44.1751527,16.4714868 43.6456212,15.5142566 L45.7637475,13.3961303 C46.6089613,12.5509165 46.6089613,11.2780041 45.7637475,10.4327902 L39.6232179,4.29226069 C38.7780041,3.44704684 37.4643585,3.48778004 36.6598778,4.29226069 L34.5417515,6.41038697 C33.5845214,5.8808554 32.5254582,5.45315682 31.4663951,5.13747454 L31.4663951,2.16395112 C31.4663951,1.00305499 30.509165,0.0458248473 29.3482688,0.0458248473 L20.6619145,0.0458248473 C19.5010183,0.0458248473 18.5437882,1.00305499 18.5437882,2.16395112 L18.5437882,5.23930754 C17.4847251,5.55498982 16.5274949,5.98268839 15.4684318,6.40020367 L13.3503055,4.28207739 C12.5050916,3.43686354 11.2321792,3.43686354 10.3869654,4.28207739 L4.23625255,10.4327902 C3.3910387,11.2780041 3.3910387,12.5509165 4.23625255,13.3961303 L6.35437882,15.5142566 C5.82484725,16.4714868 5.39714868,17.5305499 5.0814664,18.589613 L2.11812627,18.589613 C0.957230143,18.589613 0,19.5468432 0,20.7077393 L0,29.3940937 C0,30.5549898 0.957230143,31.51222 2.11812627,31.51222 L5.19348269,31.51222 C5.50916497,32.5712831 5.93686354,33.5285132 6.35437882,34.4755601 L4.23625255,36.5936864 C3.80855397,37.0213849 3.60488798,37.5509165 3.60488798,38.0804481 C3.60488798,38.6099796 3.81873727,39.1395112 4.23625255,39.5672098 L10.3767821,45.7077393 C11.2219959,46.5529532 12.4949084,46.5529532 13.3401222,45.7077393 L15.4582485,43.589613 C16.4154786,44.1191446 17.4745418,44.5468432 18.5336049,44.8625255 L18.5336049,47.8258656 C18.5336049,48.9867617 19.490835,49.9439919 20.6517312,49.9439919 L29.3380855,49.9439919 C30.4989817,49.9439919 31.4562118,49.098778 31.4562118,47.9276986 L31.4562118,44.9643585 C32.5152749,44.6486762 33.5743381,44.2209776 34.5315682,43.691446 L36.6496945,45.8095723 C37.4949084,46.6547862 38.7678208,46.6547862 39.6130346,45.8095723 L45.7535642,39.6690428 C46.598778,38.8238289 46.598778,37.5509165 45.7535642,36.7057026 L43.6354379,34.5875764 C44.1649695,33.6303462 44.592668,32.5712831 44.9083503,31.51222 L47.8716904,31.51222 C49.0325866,31.51222 49.9898167,30.5549898 49.9898167,29.3940937 L49.9898167,20.7077393 C50,19.5366599 49.0529532,18.589613 47.8818737,18.589613 Z M45.7637475,27.3778004 L43.2179226,27.3778004 C42.2606925,27.3778004 41.4154786,28.009165 41.2016293,28.9663951 C40.7739308,30.6568228 40.1425662,32.3574338 39.185336,33.8441955 C38.6558045,34.6894094 38.8696538,35.7484725 39.5010183,36.3900204 L41.3034623,38.1924644 L38.1364562,41.3594705 L36.3340122,39.5570265 C35.7026477,38.8136456 34.6435845,38.7118126 33.7881874,39.2413442 C32.3014257,40.1985743 30.610998,40.8299389 28.910387,41.2576375 C27.9531568,41.4714868 27.3217923,42.3167006 27.3217923,43.2739308 L27.3217923,45.8197556 L22.7698574,45.8197556 L22.6680244,45.8197556 L22.6680244,43.1720978 C22.6680244,42.2148676 22.0366599,41.3696538 21.0794297,41.1558045 C19.389002,40.7281059 17.688391,40.0967413 16.2016293,39.1395112 C15.3564155,38.6099796 14.2973523,38.8238289 13.6558045,39.4551935 L11.8635438,41.2576375 L8.68635438,38.0804481 L10.4887984,36.2780041 C11.2321792,35.6466395 11.3340122,34.5875764 10.8044807,33.7321792 C9.84725051,32.2454175 9.21588595,30.5549898 8.78818737,28.8543788 C8.57433809,27.8971487 7.72912424,27.2657841 6.77189409,27.2657841 L4.22606925,27.2657841 L4.22606925,22.7138493 L6.87372709,22.7138493 C7.83095723,22.7138493 8.67617108,22.0824847 8.89002037,21.1252546 C9.31771894,19.4348269 9.9490835,17.7342159 10.9063136,16.2474542 C11.4358452,15.4022403 11.2219959,14.3431772 10.5906314,13.7016293 L8.78818737,11.8991853 L11.9653768,8.73217923 L13.7678208,10.5346232 C14.3991853,11.2780041 15.4582485,11.3798371 16.3136456,10.8503055 C17.8004073,9.89307536 19.490835,9.26171079 21.191446,8.83401222 C22.1486762,8.62016293 22.7800407,7.77494908 22.7800407,6.81771894 L22.7800407,4.27189409 L27.3319756,4.27189409 L27.3319756,6.91955193 C27.3319756,7.87678208 27.9633401,8.72199593 28.9205703,8.93584521 C30.610998,9.36354379 32.311609,9.99490835 33.7983707,10.9521385 C34.6435845,11.4816701 35.7026477,11.2678208 36.3441955,10.6364562 L38.1364562,8.83401222 L41.3136456,12.0112016 L39.5112016,13.8136456 C38.7678208,14.4450102 38.6659878,15.5040733 39.1955193,16.3594705 C40.1527495,17.8462322 40.7841141,19.5366599 41.2118126,21.2372709 C41.4256619,22.194501 42.2708758,22.8258656 43.2281059,22.8258656 L45.7739308,22.8258656 L45.7739308,27.3778004 L45.7637475,27.3778004 Z" id="Shape"></path>
                            <path d="M25,13.9256619 C18.8594705,13.9256619 13.8798371,18.9052953 13.8798371,25.0458248 C13.8798371,31.1863544 18.8594705,36.1659878 25,36.1659878 C31.1405295,36.1659878 36.1201629,31.1863544 36.1201629,25.0458248 C36.1201629,18.9052953 31.1405295,13.9256619 25,13.9256619 Z M25,32.0417515 C21.0794297,32.0417515 18.0040733,28.8645621 18.0040733,25.0458248 C18.0040733,21.1252546 21.1812627,18.0498982 25,18.0498982 C28.8187373,18.0498982 31.9959267,21.2270876 31.9959267,25.0458248 C31.9959267,28.9663951 28.9205703,32.0417515 25,32.0417515 Z" id="Shape"></path>
                        </g>
                    </g>
                </g>
            </g>
        </g>
    </g>
</svg>