<?xml version="1.0" encoding="UTF-8"?>
<svg width="23px" height="22px" viewBox="0 0 23 22" version="1.1" xmlns="http://www.w3.org/2000/svg" xmlns:xlink="http://www.w3.org/1999/xlink">
    <!-- Generator: Sketch 49.1 (51147) - http://www.bohemiancoding.com/sketch -->
    <title>Shape</title>
    <desc>Created with Sketch.</desc>
    <defs></defs>
    <g id="Page-1" stroke="none" stroke-width="1" fill="none" fill-rule="evenodd">
        <g id="CM_Programm_1440" transform="translate(-384.000000, -618.000000)" fill="#45ADAA" fill-rule="nonzero">
            <g id="10-stars" transform="translate(260.000000, 581.000000)">
                <path d="M146.704151,45.2648438 C146.524308,44.6864063 146.026495,44.264375 145.426808,44.18125 L139.434776,43.3509375 L136.879464,37.8992187 C136.622276,37.3503125 136.070714,37 135.464776,37 C134.858683,37 134.307433,37.3504687 134.050089,37.8992187 L131.496026,43.3482812 L125.352589,44.1807812 C124.747276,44.2626562 124.245558,44.69 124.067745,45.2740625 C123.889933,45.8584375 124.068839,46.4926562 124.52587,46.8979687 L129.069776,50.9270312 L128.091183,57.0421875 C127.995089,57.6434375 128.256808,58.2454687 128.761808,58.5853125 C129.025089,58.7625 129.329308,58.8514062 129.634151,58.8514062 C129.914151,58.8514062 130.19462,58.77625 130.443995,58.6251562 L135.464776,55.581875 L140.48587,58.625 C141.006339,58.940625 141.662745,58.9253125 142.167745,58.5851562 C142.672745,58.2454687 142.93462,57.6434375 142.838526,57.0423437 L141.858995,50.9120312 L146.266808,46.881875 C146.713526,46.4732812 146.883995,45.8432813 146.704151,45.2648438 Z M139.128995,49.1739063 C138.741026,49.5285938 138.557433,50.054375 138.640401,50.5734375 L139.220558,54.2040625 L136.274776,52.4184375 C136.02587,52.2675 135.745401,52.1921875 135.464933,52.1921875 C135.184464,52.1921875 134.903995,52.2675 134.654933,52.4184375 L131.709776,54.2035938 L132.290714,50.5739063 C132.375089,50.0464063 132.184151,49.5125 131.784464,49.1579688 L129.147589,46.8196875 L132.759308,46.3301563 C133.285245,46.2589063 133.738995,45.9254688 133.964151,45.445 L135.464776,42.2434375 L136.965401,45.445 C137.189933,45.9240625 137.641651,46.256875 138.165558,46.3295313 L141.703526,46.8198438 L139.128995,49.1739063 Z" id="Shape"></path>
            </g>
        </g>
    </g>
</svg>